<svg width="9" height="8" viewBox="0 0 9 8" fill="none" xmlns="http://www.w3.org/2000/svg">
<path opacity="0.4" d="M1.39771 3.24585C1.12156 3.24585 0.897705 3.46971 0.897705 3.74585C0.897705 4.02199 1.12156 4.24585 1.39771 4.24585V3.24585ZM8.08866 4.0994C8.28392 3.90414 8.28392 3.58756 8.08866 3.3923L4.90668 0.210316C4.71142 0.0150536 4.39484 0.0150536 4.19957 0.210316C4.00431 0.405578 4.00431 0.72216 4.19957 0.917422L7.028 3.74585L4.19957 6.57428C4.00431 6.76954 4.00431 7.08612 4.19957 7.28138C4.39484 7.47665 4.71142 7.47665 4.90668 7.28138L8.08866 4.0994ZM1.39771 4.24585H7.73511V3.24585H1.39771V4.24585Z" fill="white"/>
</svg>
