<svg width="112" height="72" viewBox="0 0 112 72" fill="none" xmlns="http://www.w3.org/2000/svg">
<path d="M112 21.386C111.908 21.287 111.814 21.1854 111.723 21.0864C111.079 21.5544 110.465 22.0768 109.784 22.4804C105.104 25.2634 100.11 27.368 94.9972 29.2077C93.9499 29.5841 92.8852 29.9208 91.87 30.369C91.199 30.6661 90.6048 31.1316 89.9759 31.5203L89.7307 31.3272C89.8768 30.5373 90.0972 29.75 90.1319 28.9552C90.1467 28.6209 89.8174 28.039 89.5549 27.9796C89.1935 27.9004 88.4828 28.1084 88.3788 28.3733C88.0074 29.3216 87.8217 30.3442 87.5766 31.342C87.5098 31.6169 87.5494 31.9462 87.4107 32.169C85.7766 34.7862 84.1399 37.4009 82.4438 39.9759C82.2235 40.3102 81.6466 40.642 81.295 40.5875C80.9632 40.538 80.5447 40.018 80.4457 39.6342C79.9852 37.849 79.5766 36.0489 79.2424 34.2365C79.1037 33.4788 78.918 33.0876 78.0762 33.6076C78.403 32.8722 78.7892 32.2681 78.9106 31.6169C78.9749 31.2727 78.5763 30.8419 78.3881 30.4507C78.0489 30.6562 77.6552 30.8072 77.3903 31.0821C77.1501 31.3321 77.0957 31.7506 76.8802 32.0329C75.2535 34.1697 73.6713 36.3436 71.9455 38.4012C71.0468 39.4708 69.935 40.382 68.8357 41.256C68.0904 41.8478 67.6175 41.6423 67.516 40.6915C67.3723 39.3396 67.4144 37.9703 67.3327 36.611C67.3104 36.2619 67.1495 35.6503 66.9935 35.6305C66.5949 35.581 65.9907 35.6602 65.7753 35.9326C64.7379 37.2374 63.9257 38.7404 62.7992 39.9536C61.477 41.3773 59.9889 42.6847 58.4191 43.8311C57.3643 44.6011 56.2699 44.1034 55.8193 42.853C55.4627 41.8676 55.2993 40.8153 54.9601 39.8224C54.6828 39.0078 54.2718 38.2402 53.9177 37.4504C53.6775 37.2003 53.7369 36.8338 53.6949 36.4798C53.6602 36.1851 53.576 35.732 53.3878 35.6553C53.108 35.5414 52.5336 35.5711 52.4073 35.7593C51.7462 36.7373 50.8301 37.7351 50.684 38.8171C50.5033 40.169 50.0502 41.204 49.1984 42.187C48.926 42.5014 48.8641 42.9942 48.7007 43.4052C48.4903 43.9301 48.2773 44.455 48.0644 44.9799C47.9629 44.9502 47.8614 44.9205 47.7598 44.8908C47.7351 44.658 47.6435 44.4104 47.693 44.1926C48.104 42.3653 48.5423 40.5429 48.9706 38.7206C49.4832 36.5466 50.0823 34.3875 50.481 32.1913C50.7657 30.624 50.84 29.0096 50.9044 27.4126C50.996 25.1619 51.0133 22.9087 51.0133 20.658C51.0133 20.3609 50.7558 19.8459 50.5602 19.8187C50.2359 19.7716 49.8149 19.9722 49.5327 20.1926C49.342 20.3411 49.2752 20.6977 49.2306 20.975C48.9681 22.5794 48.6933 24.1814 48.4853 25.7933C47.9901 29.6485 47.5444 33.511 47.0567 37.3687C46.7026 40.1641 46.5095 43.0387 43.7586 44.7893C43.3674 45.0369 43.1148 45.49 42.7385 45.7723C41.8397 46.4482 40.9409 47.1415 39.9728 47.7085C39.0913 48.226 38.7274 47.9536 38.6655 46.936C38.6382 46.5052 38.6531 46.0347 38.4872 45.6534C37.8088 44.091 37.108 42.5336 36.3355 41.0158C35.8626 40.0848 35.6571 39.2975 36.2315 38.2724C37.4869 36.0366 38.5862 33.6621 38.1702 31.0202C37.8979 29.2919 37.3928 27.5537 36.6747 25.9617C36.135 24.7658 34.897 24.8376 34.1517 25.927C31.3439 30.0298 31.3265 34.3058 33.3594 38.7255C33.5525 39.1464 33.6094 39.815 33.4064 40.2012C32.7676 41.4219 32.1263 42.697 31.2126 43.7073C28.6549 46.5373 26.0675 49.3526 23.2795 51.9474C21.9746 53.1607 20.1845 53.854 18.6147 54.7849C18.4958 54.6488 18.3745 54.5126 18.2557 54.3764C18.7212 53.7203 19.1891 53.0666 19.6546 52.4104C19.568 52.3238 19.4838 52.2346 19.3971 52.148C19.0208 52.4946 18.6741 52.8834 18.2606 53.1755C17.5995 53.6435 17.1563 54.2749 17.5153 55.0078C17.8843 55.7605 18.7286 55.6936 19.4664 55.5822C19.7512 55.5401 20.0557 55.4683 20.2959 55.3198C22.1678 54.1511 24.0892 53.0394 25.8719 51.7444C27.1644 50.806 27.1495 50.754 28.4073 51.737C28.9421 52.1554 29.7147 52.304 30.4055 52.4847C30.8908 52.611 31.4281 52.5293 31.9183 52.6432C33.8273 53.079 35.61 52.8809 37.217 51.6974C38.1678 50.9966 39.0319 50.1325 40.0669 49.6002C41.7431 48.7336 43.2609 47.7234 44.494 46.2873C44.7985 45.9332 45.1897 45.6534 45.784 45.1235V49.4244C47.3067 49.053 47.4627 48.8871 47.7202 47.7382C47.7995 47.3891 47.9356 47.0449 48.1015 46.7255C48.8864 45.2052 49.7209 43.7097 50.481 42.1796C51.0257 41.0802 51.459 39.9264 52.0013 38.827C52.1127 38.6017 52.4841 38.5027 52.7342 38.3442C52.8679 38.6141 53.0536 38.8716 53.1229 39.1563C53.4819 40.6221 53.6602 42.1523 54.1826 43.5562C55.1087 46.0446 57.1415 46.6686 59.3352 45.1904C61.3655 43.8236 63.2325 42.2563 64.5868 40.1641C64.7676 39.8843 65.0424 39.6615 65.2752 39.4139C65.3816 39.4411 65.4881 39.4658 65.5946 39.4931C65.6466 40.2582 65.6738 41.0233 65.753 41.7859C65.9189 43.4027 67.1495 44.252 68.4965 43.5042C70.975 42.13 72.9409 40.1938 74.4587 37.7574C75.2065 36.5565 76.2736 35.5537 77.1947 34.4593C77.3012 34.499 77.4052 34.5386 77.5116 34.5782C77.5611 34.9793 77.6528 35.3829 77.6503 35.784C77.6354 37.5247 77.9202 39.1811 78.8388 40.7014C80.3269 43.165 81.4658 43.3433 83.6274 41.3105C83.8626 41.0901 84.0632 40.8153 84.2241 40.533C84.9075 39.3396 85.8756 38.3665 86.247 36.9131C86.5565 35.7097 87.4949 34.6302 88.2897 33.6002C88.7181 33.0455 89.3668 32.5157 90.0204 32.3077C92.1944 31.6169 94.455 31.1861 96.6141 30.4532C101.385 28.8314 105.882 26.5856 110.254 24.0948C111.329 23.4807 111.663 22.4358 112 21.3835V21.386Z" fill="white"/>
<path d="M79.6212 22.7601C81.0152 23.2454 81.5327 22.7006 81.5648 20.7372C81.5772 19.982 81.3767 19.5437 80.5348 19.618C79.7648 19.6873 79.3141 20.0439 79.3934 20.8684C79.4528 21.4899 79.5419 22.1114 79.6212 22.7601Z" fill="white"/>
<path d="M112 21.386C111.663 22.4358 111.332 23.4831 110.254 24.0972C105.882 26.5905 101.388 28.8363 96.6141 30.4556C94.455 31.1885 92.1944 31.6193 90.0205 32.3101C89.3643 32.5181 88.7156 33.048 88.2897 33.6026C87.4949 34.6326 86.5565 35.7122 86.247 36.9155C85.8756 38.3665 84.9075 39.342 84.2241 40.5355C84.0632 40.8177 83.8626 41.0926 83.6274 41.3129C81.4659 43.3457 80.3244 43.1675 78.8388 40.7038C77.9202 39.1835 77.6354 37.5271 77.6503 35.7865C77.6528 35.3853 77.5612 34.9842 77.5116 34.5806C77.4052 34.541 77.3012 34.5014 77.1947 34.4618C76.2712 35.5537 75.204 36.559 74.4587 37.7598C72.9434 40.1962 70.975 42.13 68.4965 43.5067C67.1495 44.2544 65.919 43.4051 65.7531 41.7883C65.6738 41.0257 65.6466 40.2606 65.5946 39.4955C65.4881 39.4683 65.3817 39.4435 65.2752 39.4163C65.0449 39.6664 64.7701 39.8867 64.5869 40.1665C63.2325 42.2563 61.3631 43.8261 59.3352 45.1928C57.1415 46.671 55.1062 46.0471 54.1827 43.5587C53.6602 42.1548 53.4819 40.6271 53.1229 39.1588C53.0536 38.874 52.8679 38.6165 52.7342 38.3467C52.4841 38.5051 52.1127 38.6042 52.0013 38.8295C51.459 39.9313 51.0282 41.0851 50.481 42.182C49.7209 43.7147 48.8889 45.2102 48.1016 46.728C47.9357 47.0474 47.7995 47.3915 47.7203 47.7406C47.4628 48.8895 47.3043 49.0554 45.784 49.4268V45.126C45.1898 45.6558 44.7986 45.9356 44.494 46.2897C43.261 47.7258 41.7456 48.736 40.0669 49.6026C39.0319 50.1374 38.1678 50.9991 37.217 51.6998C35.6101 52.8833 33.8274 53.0814 31.9183 52.6456C31.4281 52.5342 30.8908 52.6159 30.4055 52.4872C29.7172 52.3064 28.9447 52.1579 28.4074 51.7394C27.1471 50.7564 27.1644 50.8084 25.8719 51.7468C24.0892 53.0418 22.1703 54.151 20.2959 55.3222C20.0582 55.4708 19.7512 55.5426 19.4665 55.5847C18.7286 55.6961 17.8818 55.7605 17.5154 55.0102C17.1563 54.2773 17.602 53.6459 18.2607 53.178C18.6741 52.8858 19.0208 52.4971 19.3971 52.1504C19.4838 52.2371 19.568 52.3262 19.6546 52.4129C19.1892 53.069 18.7212 53.7227 18.2557 54.3788C18.3745 54.515 18.4959 54.6512 18.6147 54.7874C20.1845 53.8589 21.9747 53.1656 23.2795 51.9499C26.0675 49.355 28.6574 46.5373 31.2127 43.7097C32.1239 42.6995 32.7651 41.4243 33.4064 40.2037C33.6095 39.8174 33.5525 39.1489 33.3594 38.728C31.3291 34.3083 31.3464 30.0322 34.1517 25.9294C34.897 24.84 36.135 24.7682 36.6748 25.9641C37.3928 27.5562 37.8979 29.2968 38.1703 31.0226C38.5862 33.6645 37.4844 36.039 36.2316 38.2748C35.6571 39.2999 35.8626 40.0898 36.3356 41.0183C37.1081 42.5385 37.8088 44.0935 38.4872 45.6558C38.6531 46.0372 38.6382 46.5076 38.6655 46.9384C38.7274 47.9585 39.0914 48.2284 39.9728 47.7109C40.9409 47.1439 41.8373 46.4506 42.7385 45.7747C43.1124 45.4924 43.3674 45.0393 43.7586 44.7917C46.5095 43.0412 46.7026 40.169 47.0567 37.3711C47.5445 33.5135 47.9926 29.6534 48.4854 25.7957C48.6909 24.1839 48.9682 22.5794 49.2306 20.9774C49.2752 20.7001 49.342 20.346 49.5327 20.195C49.815 19.9746 50.2359 19.7741 50.5602 19.8211C50.7534 19.8484 51.0134 20.3634 51.0134 20.6605C51.0134 22.9137 50.9985 25.1668 50.9044 27.4151C50.8376 29.0121 50.7658 30.6264 50.481 32.1938C50.0824 34.3875 49.4832 36.5466 48.9706 38.723C48.5398 40.5454 48.104 42.3677 47.693 44.195C47.6435 44.4104 47.7351 44.658 47.7599 44.8932C47.8614 44.9229 47.9629 44.9527 48.0644 44.9824C48.2774 44.4575 48.4928 43.9325 48.7008 43.4076C48.8642 42.9991 48.9261 42.5039 49.1984 42.1894C50.0502 41.2064 50.5033 40.1715 50.684 38.8196C50.8301 37.7376 51.7463 36.7397 52.4074 35.7617C52.5336 35.576 53.1081 35.5438 53.3879 35.6577C53.576 35.7345 53.6602 36.1851 53.6949 36.4822C53.737 36.8363 53.6775 37.2027 53.9177 37.4528C54.2693 38.2402 54.6803 39.0102 54.9601 39.8248C55.2993 40.8177 55.4628 41.87 55.8193 42.8555C56.2699 44.1034 57.3668 44.6035 58.4191 43.8335C59.9889 42.6871 61.4745 41.3773 62.7992 39.9561C63.9258 38.7428 64.7379 37.2424 65.7753 35.935C65.9908 35.6627 66.5949 35.5859 66.9935 35.6329C67.1495 35.6528 67.3105 36.2643 67.3328 36.6134C67.4169 37.9728 67.3749 39.342 67.516 40.6939C67.6175 41.6447 68.0904 41.8502 68.8357 41.2584C69.9351 40.3819 71.0468 39.4732 71.9456 38.4036C73.6714 36.3485 75.256 34.1746 76.8803 32.0353C77.0957 31.7506 77.1502 31.3321 77.3903 31.0845C77.6553 30.8097 78.0489 30.6586 78.3882 30.4531C78.5763 30.8443 78.975 31.2752 78.9106 31.6193C78.7893 32.2705 78.403 32.8747 78.0762 33.61C78.918 33.0901 79.1037 33.4813 79.2424 34.2389C79.5767 36.0514 79.9827 37.8515 80.4457 39.6367C80.5448 40.0204 80.9632 40.5404 81.295 40.5899C81.6491 40.6444 82.2235 40.3101 82.4439 39.9783C84.1399 37.4008 85.7766 34.7886 87.4108 32.1715C87.5494 31.9486 87.5098 31.6168 87.5767 31.3445C87.8218 30.3467 88.0075 29.3241 88.3789 28.3757C88.4829 28.1108 89.191 27.9028 89.555 27.9821C89.8174 28.039 90.1468 28.6209 90.1319 28.9576C90.0972 29.7524 89.8769 30.5398 89.7308 31.3296L89.9759 31.5228C90.6048 31.134 91.1991 30.6661 91.8701 30.3714C92.8852 29.9233 93.9524 29.5865 94.9973 29.2102C100.11 27.3705 105.102 25.2659 109.784 22.4828C110.465 22.0768 111.079 21.5568 111.723 21.0888C111.814 21.1879 111.908 21.2894 112 21.3884V21.386ZM28.858 49.1322C28.858 49.2263 28.858 49.3179 28.858 49.412C31.5692 48.5775 34.4166 50.1498 37.3705 48.6419C36.5906 46.2303 35.8329 43.8904 34.9861 41.2733C32.8097 44.0662 30.8338 46.5992 28.8605 49.1322H28.858ZM34.7732 37.6534C35.9914 35.3135 36.9372 33.0727 36.6871 30.5175C36.5559 29.1805 36.4024 27.7964 34.694 27.4547C33.0375 28.9997 32.723 35.0437 34.7732 37.6509V37.6534Z" fill="#2C6AB1"/>
<path d="M79.6212 22.7601C79.542 22.1114 79.4528 21.4924 79.3934 20.8684C79.3166 20.0439 79.7648 19.6873 80.5348 19.618C81.3767 19.5437 81.5748 19.982 81.5649 20.7372C81.5351 22.7006 81.0152 23.2454 79.6212 22.7601Z" fill="#2C6AB1"/>
<path d="M28.8579 49.1321C30.8313 46.5991 32.8072 44.0661 34.9836 41.2732C35.8304 43.8903 36.5881 46.2302 37.368 48.6418C34.4116 50.1497 31.5642 48.5774 28.8555 49.4118C28.8555 49.3178 28.8555 49.2262 28.8555 49.1321H28.8579Z" fill="white"/>
<path d="M34.7732 37.6533C32.7255 35.046 33.0375 28.9996 34.6939 27.457C36.4024 27.7962 36.5559 29.1828 36.6871 30.5199C36.9372 33.0751 35.9914 35.3159 34.7732 37.6557V37.6533Z" fill="white"/>
</svg>
