<svg width="188" height="75" viewBox="0 0 188 75" fill="none" xmlns="http://www.w3.org/2000/svg">
<g opacity="0.9">
<path d="M93.3001 22.5917H90.9848V8.97217H93.699L97.493 16.9591C97.8724 17.7568 98.1253 18.3599 98.4075 19.2452L98.6118 19.2258C98.495 18.1654 98.4366 17.3677 98.4366 16.4921V8.97217H100.762V22.5917H98.0864L94.3216 14.7118C93.9227 13.8752 93.6503 13.1845 93.339 12.2603L93.1445 12.2895C93.2612 13.3888 93.3001 14.1573 93.3001 15.0718V22.5917Z" fill="#235288"/>
<path d="M105.159 22.8252C103.505 22.8252 102.561 21.8718 102.561 20.257V20.218C102.561 18.0195 104.264 17.2217 106.229 16.7256L108.184 16.2295V15.3734C108.184 14.2546 107.727 13.7487 106.706 13.7487C105.519 13.7487 104.974 14.5075 105.091 16.1419L102.785 15.889C102.639 13.5347 104.05 12.1436 106.754 12.1436C109.245 12.1436 110.519 13.2234 110.519 15.3345V20.2959C110.519 21.0352 110.636 21.1422 111.531 21.1811L111.22 22.7766C111.083 22.8058 110.86 22.8252 110.675 22.8252C108.817 22.8252 108.389 22.0761 108.768 20.2083L108.573 20.1694C108.097 21.901 106.949 22.8252 105.159 22.8252ZM106.025 21.1033C107.27 21.1033 108.184 20.0429 108.184 18.5253V17.8346L106.968 18.1751C105.762 18.5156 104.935 19.0117 104.935 20.004V20.0429C104.935 20.7336 105.315 21.1033 106.025 21.1033Z" fill="#235288"/>
<path d="M116.142 22.8155C114.294 22.8155 113.34 21.8816 113.34 19.8775V14.099H111.901V12.3771H113.34V10.0617L115.714 9.35157V12.3771H118.389V14.099H115.714V19.5954C115.714 20.5683 116.113 20.9477 116.92 20.9477C117.358 20.9477 117.903 20.8309 118.418 20.6072L118.282 22.3388C117.747 22.6209 116.92 22.8155 116.142 22.8155Z" fill="#235288"/>
<path d="M122.388 11.1318H119.81V9.12782H122.388V11.1318ZM122.281 22.5917H119.907V12.3771H122.281V22.5917Z" fill="#235288"/>
<path d="M128.419 22.8349C125.598 22.8349 124.032 20.8504 124.032 17.5914V17.3774C124.032 14.099 125.598 12.1339 128.419 12.1339C131.24 12.1339 132.807 14.099 132.807 17.3774V17.5914C132.807 20.8504 131.231 22.8349 128.419 22.8349ZM128.419 21.2006C129.723 21.2006 130.365 20.1499 130.365 17.9416V17.0272C130.365 14.8189 129.723 13.7585 128.419 13.7585C127.106 13.7585 126.473 14.8189 126.473 17.0272V17.9416C126.473 20.1499 127.106 21.2006 128.419 21.2006Z" fill="#235288"/>
<path d="M136.931 22.5917H134.558V12.3771H136.931C136.912 13.1067 136.785 13.7877 136.387 14.9842L136.591 15.0621C137.369 13.0678 138.517 12.202 140.093 12.202C141.883 12.202 142.798 13.165 142.798 15.0037V22.5917H140.434V15.4901C140.434 14.4492 139.967 13.8849 139.111 13.8849C137.807 13.8849 136.931 15.3053 136.931 17.4163V22.5917Z" fill="#235288"/>
<path d="M147.029 22.8252C145.375 22.8252 144.432 21.8718 144.432 20.257V20.218C144.432 18.0195 146.134 17.2217 148.099 16.7256L150.055 16.2295V15.3734C150.055 14.2546 149.598 13.7487 148.576 13.7487C147.389 13.7487 146.844 14.5075 146.961 16.1419L144.656 15.889C144.51 13.5347 145.92 12.1436 148.625 12.1436C151.115 12.1436 152.39 13.2234 152.39 15.3345V20.2959C152.39 21.0352 152.506 21.1422 153.401 21.1811L153.09 22.7766C152.954 22.8058 152.73 22.8252 152.545 22.8252C150.687 22.8252 150.259 22.0761 150.638 20.2083L150.444 20.1694C149.967 21.901 148.819 22.8252 147.029 22.8252ZM147.895 21.1033C149.14 21.1033 150.055 20.0429 150.055 18.5253V17.8346L148.839 18.1751C147.632 18.5156 146.806 19.0117 146.806 20.004V20.0429C146.806 20.7336 147.185 21.1033 147.895 21.1033Z" fill="#235288"/>
<path d="M157.127 22.5917H154.754V8.97217H157.127V22.5917Z" fill="#235288"/>
<path d="M93.3974 40.7223H90.9848V27.1027H98.7479V29.0581H93.3974V32.7743H98.2907V34.6032H93.3974V40.7223Z" fill="#235288"/>
<path d="M102.892 29.2624H100.314V27.2583H102.892V29.2624ZM102.785 40.7223H100.411V30.5076H102.785V40.7223Z" fill="#235288"/>
<path d="M107.26 40.7223H104.886V30.5076H107.26C107.241 31.2372 107.114 31.9182 106.715 33.1148L106.92 33.1926C107.698 31.1983 108.846 30.3325 110.422 30.3325C112.212 30.3325 113.126 31.2956 113.126 33.1342V40.7223H110.762V33.6206C110.762 32.5797 110.295 32.0155 109.439 32.0155C108.136 32.0155 107.26 33.4358 107.26 35.5468V40.7223Z" fill="#235288"/>
<path d="M117.358 40.9557C115.704 40.9557 114.761 40.0024 114.761 38.3875V38.3486C114.761 36.15 116.463 35.3523 118.428 34.8561L120.384 34.36V33.5039C120.384 32.3851 119.926 31.8793 118.905 31.8793C117.718 31.8793 117.173 32.6381 117.29 34.2724L114.984 34.0195C114.838 31.6652 116.249 30.2741 118.954 30.2741C121.444 30.2741 122.718 31.3539 122.718 33.465V38.4264C122.718 39.1657 122.835 39.2727 123.73 39.3117L123.419 40.9071C123.283 40.9363 123.059 40.9557 122.874 40.9557C121.016 40.9557 120.588 40.2067 120.967 38.3388L120.773 38.2999C120.296 40.0315 119.148 40.9557 117.358 40.9557ZM118.224 39.2338C119.469 39.2338 120.384 38.1735 120.384 36.6558V35.9651L119.168 36.3056C117.961 36.6461 117.134 37.1423 117.134 38.1345V38.1735C117.134 38.8642 117.514 39.2338 118.224 39.2338Z" fill="#235288"/>
<path d="M127.456 40.7223H125.082V30.5076H127.456C127.437 31.2372 127.31 31.9182 126.911 33.1148L127.116 33.1926C127.894 31.1983 129.042 30.3325 130.618 30.3325C132.408 30.3325 133.322 31.2956 133.322 33.1342V40.7223H130.958V33.6206C130.958 32.5797 130.491 32.0155 129.635 32.0155C128.332 32.0155 127.456 33.4358 127.456 35.5468V40.7223Z" fill="#235288"/>
<path d="M139.402 40.9655C136.533 40.9655 135.044 39.1171 135.044 35.576V35.5371C135.044 32.0738 136.571 30.2644 139.412 30.2644C141.98 30.2644 143.352 31.6263 143.556 34.2043L141.192 34.4864C141.085 32.7062 140.541 31.889 139.402 31.889C138.099 31.889 137.486 32.9396 137.486 35.148V35.9651C137.486 38.2415 138.118 39.3214 139.432 39.3214C140.55 39.3214 141.144 38.5042 141.251 36.8601L143.673 37.1617C143.391 39.6424 141.932 40.9655 139.402 40.9655Z" fill="#235288"/>
<path d="M151.407 37.1812L153.683 37.473C153.333 39.7981 151.855 40.9557 149.403 40.9557C146.592 40.9557 145.045 39.2241 145.045 36.0721V35.1674C145.045 32.0155 146.601 30.2741 149.471 30.2741C152.146 30.2741 153.635 31.9279 153.635 34.8756C153.635 35.3328 153.615 35.7608 153.567 36.257H147.399V36.4515C147.399 38.4069 148.119 39.3506 149.481 39.3506C150.58 39.3506 151.222 38.728 151.407 37.1812ZM149.452 31.8793C148.129 31.8793 147.448 32.7937 147.399 34.6324H151.281V34.3697C151.281 32.6673 150.668 31.8793 149.452 31.8793Z" fill="#235288"/>
<path d="M96.0338 59.096C92.444 59.096 90.5859 56.6931 90.5859 52.0625V52.0235C90.5859 47.4026 92.444 44.99 96.0338 44.99C99.6138 44.99 101.472 47.4026 101.472 52.0235V52.0625C101.472 56.6931 99.6138 59.096 96.0338 59.096ZM96.0338 57.1892C98.0378 57.1892 99.0009 55.6911 99.0009 52.5878V51.5858C99.0009 48.4241 98.0378 46.8967 96.024 46.8967C94.02 46.8967 93.0472 48.4241 93.0472 51.5858V52.5878C93.0472 55.6911 94.02 57.1892 96.0338 57.1892Z" fill="#235288"/>
<path d="M105.684 58.8528H103.311V45.2332H105.684V58.8528Z" fill="#235288"/>
<path d="M107.426 62.4911L107.124 60.4677L108.447 60.3412C109.585 60.2342 109.965 59.9423 110.091 59.4559L110.218 58.9695L106.891 48.6381H109.332L110.772 54.1346C111.006 55.0004 111.171 55.8565 111.317 56.8779H111.521C111.667 55.8565 111.832 55.0198 112.066 54.154L113.467 48.6381H115.782L112.864 58.3566C111.969 61.3919 110.83 62.2966 107.426 62.4911Z" fill="#235288"/>
<path d="M119.382 58.8528H117.008V48.6381H119.391C119.411 49.2607 119.294 49.8152 118.847 51.1966L119.041 51.2842C119.956 49.1926 120.899 48.463 122.29 48.463C123.857 48.463 124.576 49.5136 124.197 51.2939L124.392 51.3523C125.112 49.3094 126.221 48.463 127.748 48.463C129.411 48.463 130.209 49.3872 130.209 51.2842V58.8528H127.835V51.683C127.835 50.6713 127.446 50.1654 126.668 50.1654C125.481 50.1654 124.8 51.6247 124.8 53.5801V58.8528H122.436V51.7025C122.436 50.7102 122.028 50.1557 121.288 50.1557C120.14 50.1557 119.382 51.5566 119.382 53.6384V58.8528Z" fill="#235288"/>
<path d="M137.622 48.463C139.801 48.463 140.949 50.2043 140.949 53.5314V53.9595C140.949 57.2865 139.801 59.0279 137.622 59.0279C135.89 59.0279 134.869 57.987 134.334 56.3332L134.13 56.411C134.49 57.6562 134.635 58.522 134.635 59.4851V62.2577H132.262V48.6381H134.626C134.606 49.144 134.451 49.9611 134.13 51.0799L134.334 51.148C134.879 49.4358 135.9 48.463 137.622 48.463ZM136.688 50.0584C135.355 50.0584 134.635 51.2453 134.635 53.4633V54.0178C134.635 56.2456 135.355 57.4422 136.688 57.4422C137.933 57.4422 138.556 56.3623 138.556 54.1151V53.366C138.556 51.1285 137.933 50.0584 136.688 50.0584Z" fill="#235288"/>
<path d="M145.191 47.3929H142.613V45.3889H145.191V47.3929ZM145.084 58.8528H142.71V48.6381H145.084V58.8528Z" fill="#235288"/>
<path d="M149.345 59.0863C147.691 59.0863 146.747 58.1329 146.747 56.518V56.4791C146.747 54.2805 148.45 53.4828 150.415 52.9866L152.37 52.4905V51.6344C152.37 50.5157 151.913 50.0098 150.891 50.0098C149.705 50.0098 149.16 50.7686 149.277 52.4029L146.971 52.15C146.825 49.7958 148.236 48.4046 150.94 48.4046C153.431 48.4046 154.705 49.4845 154.705 51.5955V56.5569C154.705 57.2963 154.822 57.4033 155.717 57.4422L155.405 59.0376C155.269 59.0668 155.045 59.0863 154.861 59.0863C153.002 59.0863 152.574 58.3372 152.954 56.4694L152.759 56.4304C152.283 58.1621 151.135 59.0863 149.345 59.0863ZM150.21 57.3644C151.456 57.3644 152.37 56.304 152.37 54.7864V54.0957L151.154 54.4361C149.948 54.7766 149.121 55.2728 149.121 56.2651V56.304C149.121 56.9947 149.5 57.3644 150.21 57.3644Z" fill="#235288"/>
<path d="M159.676 59.0279C157.497 59.0279 156.349 57.2865 156.349 53.9595V53.5314C156.349 50.2043 157.497 48.463 159.676 48.463C161.408 48.463 162.419 49.5039 162.964 51.1577L163.168 51.0799C162.799 49.8347 162.663 48.9689 162.663 48.0058V45.2332H165.027V58.8528H162.672C162.682 58.3469 162.847 57.5297 163.168 56.411L162.964 56.3332C162.41 58.0551 161.398 59.0279 159.676 59.0279ZM160.61 57.4324C161.943 57.4324 162.663 56.2456 162.663 54.0276V53.473C162.663 51.2453 161.943 50.0487 160.61 50.0487C159.355 50.0487 158.742 51.1285 158.742 53.3758V54.1248C158.742 56.3623 159.355 57.4324 160.61 57.4324Z" fill="#235288"/>
</g>
<path d="M47.9902 63.9712L47.5659 63.8545L47.4492 64.2655L47.8841 64.3848C48.0034 64.414 48.1201 64.3451 48.1466 64.231C48.1731 64.117 48.1042 64.0003 47.9902 63.9712Z" fill="#235288"/>
<path d="M47.3919 62.2204C47.1453 61.6184 46.6971 61.2684 46.2437 61.2763C45.9361 61.6953 45.8326 62.3795 46.0793 62.9947C46.1535 63.1829 46.2543 63.342 46.3683 63.4826C46.3683 63.4826 46.1455 63.403 45.9201 63.3235C45.6948 63.2466 45.4747 63.1591 45.4747 63.1591L45.3156 63.0981C45.5648 62.6765 45.6125 62.0692 45.4269 61.5123C45.2227 60.8812 44.7905 60.51 44.3371 60.4782C43.9976 60.8786 43.8544 61.5442 44.056 62.1859C44.117 62.3768 44.2071 62.5439 44.3132 62.6897C44.3132 62.6897 44.0931 62.5969 43.8757 62.5041C43.6582 62.4033 43.4434 62.3052 43.4434 62.3052L43.2896 62.2336C43.5681 61.8279 43.6556 61.2313 43.5044 60.6585C43.3427 60.0114 42.929 59.619 42.4808 59.5554C42.1175 59.9319 41.9293 60.5922 42.091 61.2419C42.1414 61.4354 42.2183 61.6078 42.3164 61.759C42.3164 61.759 42.1043 61.6529 41.8921 61.5442C41.6827 61.4301 41.4732 61.3161 41.4732 61.3161L41.3247 61.2339C41.627 60.8494 41.7543 60.2528 41.6402 59.6747C41.5103 59.033 41.1417 58.5848 40.6856 58.5106C40.2958 58.8685 40.0731 59.5076 40.1924 60.1626C40.2295 60.3615 40.2958 60.5391 40.3807 60.6982L39.5639 60.2077L39.4207 60.1149C39.7469 59.7516 39.9139 59.1629 39.8397 58.5742C39.7973 58.248 39.6886 57.9723 39.5321 57.7654C39.3783 57.5559 39.1847 57.4048 38.962 57.3517C38.5536 57.6806 38.2858 58.3064 38.36 58.9746C38.3812 59.1788 38.4369 59.3591 38.5165 59.5182C38.5165 59.5182 38.3149 59.3909 38.124 59.2477C37.9304 59.1099 37.7369 58.9693 37.7369 58.9693L37.599 58.8712C37.9464 58.5291 38.1505 57.9537 38.1081 57.3677C38.063 56.7127 37.7554 56.2221 37.3126 56.0922C36.8804 56.3971 36.5754 57.0017 36.6125 57.6673C36.6231 57.8688 36.6656 58.0545 36.7319 58.2242L35.9867 57.6328L35.8541 57.5268C36.2227 57.2059 36.4614 56.649 36.4693 56.0497C36.4773 55.3842 36.1723 54.9042 35.7587 54.7265C35.3158 54.9943 34.9578 55.5936 34.9525 56.2566C34.9525 56.4555 34.9844 56.6437 35.04 56.8134C35.04 56.8134 34.8597 56.657 34.6821 56.5005C34.5919 56.4236 34.5044 56.3414 34.4407 56.2778C34.3771 56.2168 34.3347 56.1744 34.3347 56.1744L34.2127 56.055C34.6025 55.7607 34.8809 55.2171 34.9181 54.6258C34.9393 54.2996 34.8836 54.0079 34.7696 53.7772C34.6661 53.5385 34.5017 53.3582 34.2949 53.2601C33.8282 53.5041 33.4437 54.0636 33.388 54.7345C33.3721 54.936 33.3827 55.1322 33.4304 55.3019C33.4304 55.3019 33.388 55.2595 33.3244 55.1985C33.2634 55.1322 33.1812 55.0474 33.1016 54.9599C32.9399 54.7849 32.7755 54.6125 32.7755 54.6125L32.6588 54.4879C33.0671 54.22 33.38 53.6976 33.4516 53.1143C33.5392 52.4646 33.3323 51.921 32.9266 51.7062C32.444 51.9183 32.025 52.4513 31.9295 53.1116C31.9004 53.3105 31.9057 53.5014 31.9348 53.6791L31.3196 52.9525L31.2109 52.8226C31.6379 52.5813 31.9746 52.0854 32.1019 51.4993C32.2371 50.8497 32.0515 50.3087 31.6617 50.0647C31.1711 50.2424 30.7071 50.7569 30.5772 51.4012C30.5374 51.5975 30.5321 51.7857 30.5506 51.966C30.5506 51.966 30.4074 51.7778 30.2616 51.5869C30.19 51.4914 30.1184 51.3986 30.0627 51.327C30.0097 51.2554 29.9779 51.205 29.9779 51.205L29.8824 51.0645C30.3226 50.8523 30.7018 50.3724 30.8582 49.7996C30.9457 49.4814 30.9484 49.1844 30.8848 48.9325C30.8529 48.8078 30.8026 48.6938 30.7363 48.5957C30.6753 48.4923 30.601 48.4048 30.5109 48.3358C30.0097 48.4817 29.5165 48.9643 29.3308 49.606C29.2778 49.7996 29.2619 49.9852 29.2725 50.1655C29.2725 50.1655 29.1399 49.9693 29.0047 49.7704C28.8774 49.5689 28.7581 49.3647 28.7581 49.3647L28.6706 49.2188C29.124 49.0359 29.5324 48.5824 29.7206 48.0203C29.8241 47.71 29.8479 47.413 29.7949 47.1611C29.7419 46.9092 29.6437 46.6838 29.4661 46.5379C28.9543 46.652 28.4399 47.1001 28.2091 47.7365C28.1349 47.9301 28.1137 48.1131 28.111 48.2934C28.111 48.2934 28.0792 48.243 28.0341 48.1661C27.9864 48.0892 27.9281 47.9884 27.875 47.8797C27.7637 47.6676 27.6549 47.4581 27.6549 47.4581L27.5754 47.3069C28.0394 47.1505 28.4743 46.7235 28.6971 46.1773C28.819 45.8723 28.8588 45.5806 28.8217 45.3234C28.7952 45.0636 28.6997 44.8355 28.5353 44.6764C28.0182 44.7613 27.4773 45.1749 27.2094 45.7954C27.1272 45.9837 27.0822 46.172 27.0742 46.347C27.0742 46.347 26.9602 46.1375 26.8674 45.9174C26.7693 45.7 26.6711 45.4825 26.6711 45.4825L26.6022 45.3287C27.0742 45.2014 27.533 44.801 27.7875 44.268C27.9281 43.971 27.9838 43.6793 27.9625 43.4221C27.9519 43.1596 27.8697 42.9262 27.7133 42.7565C27.1909 42.8096 26.6287 43.1941 26.3238 43.796C26.2309 43.979 26.1726 44.1646 26.1567 44.3396C26.1567 44.3396 26.1328 44.2866 26.0957 44.2044C26.0586 44.1222 26.0188 44.0108 25.9764 43.8994C25.8915 43.6767 25.8067 43.4539 25.8067 43.4539L25.7457 43.2948C26.223 43.1941 26.7056 42.8228 26.992 42.3031C27.1485 42.014 27.22 41.7277 27.2147 41.4678C27.2068 41.2079 27.1485 40.9666 27 40.7889C26.4776 40.8128 25.8915 41.1655 25.5521 41.7515C25.446 41.9292 25.3903 42.1069 25.3585 42.2819C25.3585 42.2819 25.3373 42.2262 25.3055 42.144C25.271 42.0618 25.2339 41.9478 25.1994 41.8337C25.1278 41.6057 25.0562 41.3803 25.0562 41.3803L25.0058 41.2185C25.4885 41.1469 25.9923 40.7995 26.3052 40.2957C26.4776 40.0173 26.5677 39.7309 26.5757 39.471C26.581 39.3411 26.5624 39.2165 26.5306 39.1024C26.5014 38.9858 26.4563 38.8797 26.3874 38.7842C25.865 38.7789 25.2578 39.1024 24.8918 39.6673C24.7857 39.837 24.7168 40.012 24.677 40.1843C24.677 40.1843 24.6054 39.9563 24.5338 39.7309L24.4145 39.2695L24.3721 39.1051C24.8573 39.0574 25.3797 38.7391 25.7218 38.2512C26.101 37.7076 26.1408 37.1269 25.8756 36.745C25.3559 36.7132 24.7274 37.0049 24.3535 37.5459C24.2395 37.7103 24.1599 37.8826 24.1069 38.0523C24.1069 38.0523 24.0486 37.8216 23.9902 37.5909C23.9611 37.4743 23.9319 37.3602 23.9107 37.2727C23.8895 37.1852 23.8788 37.1269 23.8788 37.1269L23.847 36.9598C24.3349 36.9386 24.8733 36.6469 25.2418 36.1723C25.6502 35.6472 25.7271 35.0638 25.4805 34.6687C24.9555 34.613 24.327 34.8729 23.9186 35.3979C23.794 35.557 23.7065 35.7241 23.6428 35.8938L23.4652 34.9578L23.4334 34.7907C23.9292 34.7907 24.4569 34.5308 24.8573 34.0721C25.2949 33.5656 25.4036 32.9822 25.1809 32.5738C24.6585 32.4916 24.0194 32.725 23.5819 33.2315C23.4493 33.3853 23.3512 33.5497 23.2796 33.7141L23.1549 32.7674L23.1337 32.5977C23.6243 32.6216 24.1811 32.3803 24.5789 31.9454C24.6903 31.8234 24.7778 31.6988 24.8467 31.5688C24.9236 31.4389 24.9767 31.309 25.0111 31.179C25.0801 30.9191 25.0642 30.6699 24.9661 30.4604C24.4516 30.357 23.7993 30.5638 23.3352 31.0491C23.1947 31.1976 23.086 31.3567 23.0064 31.5184L22.9375 30.5665L22.9242 30.3968C23.4121 30.4418 23.9823 30.2244 24.4039 29.8054C24.6372 29.5721 24.7884 29.3122 24.8573 29.0576C24.8918 28.9303 24.9051 28.8031 24.8971 28.6837C24.8971 28.5617 24.8733 28.4451 24.8308 28.3363C24.3243 28.2117 23.6561 28.392 23.1761 28.8587C23.0356 28.9993 22.9269 29.1557 22.8473 29.3148C22.8473 29.3148 22.8288 29.0762 22.8128 28.8402C22.8022 28.6015 22.7996 28.3629 22.7996 28.3629V28.1931C23.2796 28.2568 23.8603 28.0659 24.3058 27.6601C24.7964 27.212 24.9714 26.6419 24.7937 26.2043C24.2846 26.0585 23.6243 26.2149 23.1311 26.6631C22.9826 26.7983 22.8659 26.9495 22.7757 27.1059L22.7598 26.1513V25.9816C23.2424 26.0638 23.8152 25.8941 24.2713 25.5043C24.7857 25.072 24.9899 24.5072 24.8388 24.0644C24.3376 23.9026 23.6694 24.0352 23.1523 24.4648C22.9958 24.5947 22.8712 24.7432 22.7757 24.8944L22.8102 23.9397L22.8155 23.77C23.2955 23.8682 23.8842 23.7197 24.3482 23.3458C24.8653 22.9321 25.0536 22.3726 24.9369 21.9218C24.4437 21.7415 23.7675 21.8528 23.2318 22.2638C23.0754 22.3885 22.9534 22.5317 22.8553 22.6802C22.8553 22.6802 22.8659 22.4415 22.8738 22.2029C22.8951 21.9642 22.9163 21.7282 22.9163 21.7282L22.492 21.699C22.492 21.699 22.4708 21.9377 22.4496 22.1763C22.439 22.4176 22.431 22.6563 22.431 22.6563C22.3435 22.4945 22.2321 22.3381 22.0863 22.1922C21.6275 21.7123 20.9805 21.4948 20.4608 21.6142C20.2407 22.0676 20.4157 22.704 20.8956 23.1867C21.3305 23.6242 21.9086 23.8151 22.3939 23.7515L22.3886 23.9238L22.3541 24.8838C22.2666 24.7273 22.1552 24.5735 22.0067 24.433C21.5241 23.9663 20.8665 23.77 20.3547 23.9106C20.1691 24.3746 20.3308 25.0031 20.8134 25.4672C21.2589 25.8888 21.8556 26.0611 22.3329 25.9789V26.1513L22.3541 27.1139C22.2586 26.9601 22.1367 26.8116 21.9829 26.6737C21.4764 26.2256 20.8081 26.0532 20.3043 26.2096C20.1452 26.6817 20.3388 27.3048 20.8453 27.753C21.304 28.1587 21.89 28.3072 22.37 28.2091V28.3814C22.37 28.3814 22.3727 28.6227 22.3859 28.8614C22.4045 29.1 22.4204 29.3414 22.4204 29.3414C22.317 29.1902 22.187 29.047 22.0253 28.9171C21.5055 28.4875 20.8479 28.339 20.3414 28.5167C20.3016 28.636 20.2831 28.7659 20.2884 28.8959C20.299 29.0285 20.3308 29.1637 20.3839 29.2963C20.4899 29.5641 20.6808 29.824 20.946 30.0388C21.426 30.4259 22.0226 30.5506 22.4973 30.4339L22.5105 30.6062L22.5795 31.5662C22.4761 31.4203 22.3461 31.2798 22.187 31.1578C21.6567 30.7494 20.9805 30.6275 20.4873 30.8263C20.421 31.0703 20.4448 31.3434 20.5509 31.6086C20.6039 31.7412 20.6782 31.8711 20.7737 31.9931C20.8744 32.1151 20.9964 32.2291 21.1343 32.3299C21.6381 32.6985 22.2401 32.7966 22.7068 32.6587L22.728 32.8284L22.8526 33.783C22.7413 33.6425 22.6034 33.5072 22.4363 33.3906C21.8821 33.0061 21.2006 32.9133 20.718 33.1307C20.6119 33.6239 20.8771 34.2232 21.4313 34.6077C21.9245 34.9551 22.553 35.024 23.0064 34.8676L23.0382 35.0373L23.2186 35.984C23.0992 35.8487 22.9534 35.7215 22.7784 35.6127C22.2029 35.2547 21.5135 35.1938 21.0441 35.4324C20.9672 35.9283 21.2642 36.517 21.8423 36.875C22.3621 37.1985 22.9666 37.2409 23.4227 37.0606L23.4546 37.2303C23.4546 37.2303 23.4625 37.2913 23.4864 37.3761C23.5076 37.4637 23.5368 37.5803 23.5659 37.697C23.6243 37.9304 23.6826 38.1637 23.6826 38.1637C23.5553 38.0338 23.4015 37.9145 23.2212 37.8163C22.6193 37.4902 21.9431 37.4557 21.479 37.7209C21.426 38.2221 21.7628 38.7948 22.3594 39.1236C22.9004 39.4206 23.505 39.4339 23.9504 39.2297L23.9929 39.3968L24.1122 39.8635L24.258 40.3222C24.1228 40.2003 23.9637 40.0889 23.7754 39.9987C23.1761 39.6991 22.4973 39.6991 22.0465 39.9881C22.0359 40.1154 22.0465 40.2453 22.081 40.3753C22.1181 40.5026 22.1844 40.6298 22.2666 40.7492C22.4336 40.9878 22.6803 41.2 22.9879 41.3485C23.5447 41.6163 24.152 41.5977 24.5869 41.3697L24.6399 41.5341C24.6399 41.5341 24.7115 41.7648 24.7857 41.9928C24.8202 42.1095 24.86 42.2209 24.8945 42.3057C24.9263 42.3906 24.9475 42.4463 24.9475 42.4463C24.8043 42.3323 24.6372 42.2315 24.4543 42.1466C23.8444 41.8762 23.1602 41.9159 22.728 42.2262C22.7253 42.4808 22.7996 42.7486 22.9826 42.9766C23.1629 43.2073 23.4227 43.4062 23.741 43.5361C24.3137 43.7722 24.921 43.7191 25.34 43.4672L25.401 43.629C25.401 43.629 25.4858 43.8544 25.5733 44.0798C25.6184 44.1911 25.6582 44.3052 25.6926 44.3874C25.7298 44.4696 25.7536 44.5252 25.7536 44.5252C25.6025 44.4192 25.4381 44.3237 25.2498 44.2521C24.624 44.0161 23.9425 44.093 23.5288 44.4298C23.5368 44.6844 23.6375 44.9469 23.8232 45.1696C24.0167 45.3897 24.2872 45.5727 24.6134 45.6867C25.1994 45.8909 25.8014 45.8007 26.2071 45.525L26.2787 45.6814C26.2787 45.6814 26.3768 45.9015 26.4776 46.1216C26.573 46.3443 26.687 46.5565 26.687 46.5565C26.5279 46.461 26.3582 46.3762 26.1673 46.3152C25.5282 46.1163 24.852 46.233 24.4596 46.591C24.4834 46.8455 24.6001 47.1001 24.7964 47.3122C25.0032 47.5217 25.2843 47.6888 25.6157 47.7816C26.215 47.9513 26.809 47.8267 27.1962 47.527L27.2757 47.6782C27.2757 47.6782 27.3871 47.8903 27.4985 48.1051C27.5515 48.2138 27.6125 48.3172 27.6602 48.3941C27.708 48.471 27.7371 48.5241 27.7371 48.5241C27.578 48.4366 27.3924 48.3676 27.1988 48.3172C26.5518 48.1581 25.8836 48.3146 25.5123 48.6964C25.5548 48.9484 25.6767 49.2003 25.8995 49.3965C26.1169 49.5927 26.4086 49.7439 26.7427 49.8181C27.35 49.9507 27.9334 49.7916 28.302 49.4681L28.3895 49.6166C28.3895 49.6166 28.5114 49.8261 28.6387 50.0276C28.774 50.2265 28.9092 50.4254 28.9092 50.4254C28.7448 50.3458 28.5592 50.2875 28.355 50.253C27.6921 50.139 27.0424 50.3299 26.6924 50.7383C26.7189 50.8629 26.7693 50.9876 26.8408 51.1016C26.9177 51.213 27.0159 51.3164 27.1299 51.4092C27.3579 51.5922 27.6576 51.7274 27.9944 51.7804C28.6069 51.8785 29.177 51.6797 29.5244 51.3349L29.6199 51.4781C29.6199 51.4781 29.6517 51.5285 29.7074 51.6028C29.7631 51.6744 29.8347 51.7698 29.9089 51.8679C30.0548 52.0589 30.2006 52.2524 30.2006 52.2524C30.0335 52.1835 29.8453 52.1331 29.6411 52.1145C28.9596 52.0509 28.3232 52.2816 28.0023 52.7112C28.1535 53.1991 28.6944 53.6022 29.3706 53.6685C29.9805 53.7321 30.5506 53.4882 30.8715 53.1222L30.9829 53.2548L31.606 53.992C31.4363 53.9336 31.248 53.8939 31.0412 53.8859C30.365 53.8594 29.7339 54.1405 29.4475 54.586C29.6331 55.0606 30.182 55.4425 30.8688 55.4584C31.4947 55.469 32.0409 55.1959 32.3379 54.8087L32.4546 54.9334C32.4546 54.9334 32.619 55.1084 32.7834 55.286C32.8656 55.3735 32.9478 55.4611 33.0088 55.5273C33.0724 55.591 33.1175 55.6334 33.1175 55.6334C32.9372 55.5936 32.7516 55.5618 32.5474 55.5645C31.8765 55.5777 31.2666 55.8986 31.0094 56.3626C31.1128 56.5987 31.309 56.8002 31.5636 56.9434C31.8261 57.0786 32.147 57.1502 32.4917 57.1343C33.1122 57.1078 33.6373 56.8002 33.9077 56.3945L34.0324 56.5138C34.0324 56.5138 34.0748 56.5562 34.1411 56.6172C34.2047 56.6809 34.2923 56.7657 34.3851 56.8426C34.5654 57.0017 34.7484 57.1608 34.7484 57.1608C34.5707 57.1264 34.3771 57.1157 34.1703 57.137C33.4941 57.2033 32.9186 57.5533 32.6853 58.0386C32.916 58.5026 33.5392 58.7757 34.2127 58.7094C34.8253 58.6485 35.3291 58.3037 35.573 57.8821L35.7083 57.9882L36.464 58.5875C36.2864 58.5636 36.0928 58.5636 35.8913 58.5954C35.223 58.7041 34.6608 59.1046 34.4646 59.5978C34.7404 60.0274 35.3529 60.2925 36.0291 60.1706C36.6443 60.0592 37.1243 59.6826 37.3418 59.2451L37.4823 59.3459C37.4823 59.3459 37.6785 59.4864 37.8748 59.6269C38.0683 59.7701 38.2725 59.9001 38.2725 59.9001C38.0895 59.8921 37.896 59.9054 37.6997 59.9478C37.0448 60.091 36.5118 60.5259 36.3474 61.0324C36.4958 61.2419 36.7239 61.4063 37.005 61.4911C37.2861 61.5733 37.6149 61.5839 37.9464 61.5017C38.5483 61.3585 39.0017 60.9555 39.19 60.502L39.3359 60.5948L40.1632 61.0907C39.9829 61.0907 39.792 61.1146 39.5957 61.1729C38.9461 61.3665 38.4396 61.8358 38.3096 62.3503C38.6385 62.7401 39.2775 62.9231 39.9352 62.7162C40.5292 62.528 40.9587 62.0957 41.1178 61.6343L41.269 61.7165C41.269 61.7165 41.4811 61.8305 41.6933 61.9472C41.9081 62.0559 42.1229 62.1647 42.1229 62.1647C41.9425 62.1779 41.7516 62.215 41.558 62.2866C40.9243 62.5173 40.4523 63.0106 40.3541 63.5356C40.6936 63.9254 41.3645 64.0341 41.9982 63.8008C42.579 63.578 42.982 63.1166 43.1093 62.6446L43.2658 62.7162L43.7033 62.9178C43.926 63.0132 44.1461 63.106 44.1461 63.106C43.9658 63.1299 43.7802 63.1803 43.5919 63.2651C42.9767 63.533 42.5339 64.0607 42.4702 64.5884C42.8362 64.9517 43.5097 65.0285 44.1329 64.7475C44.7003 64.4849 45.0689 63.9997 45.1644 63.5197L45.3262 63.5807C45.3262 63.5807 45.5489 63.6709 45.777 63.7478L46.2304 63.9095C46.0527 63.944 45.8698 64.005 45.6894 64.1004C45.0875 64.4187 44.6871 64.9649 44.6579 65.5006C45.0557 65.832 45.7345 65.8745 46.3418 65.543C46.8933 65.246 47.2222 64.7289 47.2778 64.2436L47.4423 64.294L47.5589 63.883L47.3972 63.8353C47.6093 63.3924 47.6093 62.7905 47.3892 62.2442L47.3919 62.2204Z" fill="#235288"/>
<path d="M22.9197 21.5537C23.2883 21.2726 23.5615 20.8139 23.6092 20.257C23.6675 19.5888 23.3944 18.9842 22.9569 18.6606C22.4716 18.8781 22.0977 19.4297 22.0394 20.1138C21.989 20.6839 22.1773 21.1931 22.4928 21.5219L22.4769 21.6942L22.9012 21.7234L22.9171 21.551L22.9197 21.5537Z" fill="#235288"/>
<path d="M76.3363 28.9096C76.1745 29.0396 76.0446 29.1854 75.9412 29.3339C75.9412 29.3339 75.9597 29.0953 75.9757 28.854C75.9863 28.6126 75.9889 28.374 75.9889 28.374V28.2016C76.4715 28.2997 77.0602 28.1512 77.519 27.7455C78.0255 27.2974 78.2217 26.6742 78.0599 26.2022C77.5561 26.0458 76.8905 26.2181 76.3814 26.6663C76.2276 26.8015 76.1056 26.9527 76.0101 27.1065L76.026 26.1439V25.9715C76.506 26.0537 77.1026 25.8813 77.5508 25.4597C78.0334 24.993 78.1952 24.3672 78.0095 23.9031C77.4978 23.7653 76.8401 23.9615 76.3575 24.4255C76.2117 24.5661 76.0976 24.7199 76.0101 24.879L75.9757 23.9191L75.9704 23.7467C76.4556 23.8103 77.0337 23.6194 77.4686 23.1819C77.9486 22.6993 78.1236 22.0655 77.9035 21.6094C77.3837 21.4874 76.7367 21.7048 76.278 22.1875C76.1321 22.3333 76.0181 22.4924 75.9332 22.6515C75.9332 22.6515 75.9226 22.4102 75.9147 22.1716C75.8935 21.9329 75.8722 21.6942 75.8722 21.6942L75.8563 21.5219C76.1719 21.1904 76.3602 20.6839 76.3098 20.1138C76.2488 19.4297 75.8775 18.8781 75.3923 18.6606C74.9547 18.9842 74.6816 19.5888 74.7399 20.257C74.7877 20.8139 75.0608 21.2726 75.4294 21.5537L75.4453 21.7261C75.4453 21.7261 75.4665 21.9647 75.4877 22.2007L75.5063 22.678C75.4082 22.5295 75.2862 22.3863 75.1297 22.2617C74.5914 21.848 73.9153 21.7393 73.4247 21.9196C73.308 22.3704 73.4936 22.93 74.0134 23.3436C74.4774 23.7175 75.0688 23.866 75.5461 23.7679L75.5514 23.9376L75.5858 24.8922C75.4877 24.7384 75.3631 24.5926 75.2093 24.4627C74.6949 24.0304 74.024 23.8978 73.5228 24.0622C73.369 24.5077 73.5732 25.0726 74.0903 25.5021C74.5464 25.8893 75.1191 26.0617 75.6044 25.9795V26.1492L75.5832 27.1038C75.493 26.9473 75.379 26.7962 75.2279 26.661C74.7373 26.2128 74.0744 26.0564 73.5652 26.2022C73.3876 26.6397 73.5626 27.2099 74.0531 27.658C74.4986 28.0637 75.0794 28.2547 75.562 28.191V28.3607C75.562 28.3607 75.5593 28.5994 75.5461 28.838C75.5275 29.0767 75.5116 29.3127 75.5116 29.3127C75.4294 29.1536 75.3233 28.9998 75.1828 28.8566C74.7028 28.3899 74.0346 28.2069 73.5281 28.3342C73.483 28.4429 73.4618 28.5596 73.4618 28.6816C73.4538 28.8036 73.4671 28.9282 73.5016 29.0555C73.5705 29.3101 73.7217 29.5699 73.955 29.8033C74.3767 30.2249 74.9468 30.4397 75.4347 30.3946L75.4214 30.5643L75.3525 31.5163C75.2729 31.3545 75.1642 31.1928 75.0237 31.0469C74.5596 30.559 73.9073 30.3522 73.3929 30.4583C73.2921 30.6677 73.2788 30.9197 73.3478 31.1769C73.3822 31.3068 73.4379 31.4368 73.5122 31.5667C73.5811 31.6966 73.6713 31.8213 73.78 31.9432C74.1778 32.3808 74.7346 32.6194 75.2252 32.5956L75.204 32.7653L75.0794 33.712C75.0078 33.5449 74.9097 33.3805 74.7771 33.2293C74.3395 32.7228 73.7005 32.4895 73.1781 32.5717C72.9553 32.9827 73.064 33.5635 73.5016 34.0699C73.9046 34.5287 74.4297 34.7886 74.9256 34.7886L74.8937 34.9556L74.7161 35.8917C74.6551 35.722 74.5649 35.5549 74.4403 35.3958C74.0319 34.8708 73.4061 34.6109 72.8784 34.6666C72.6318 35.0643 72.7061 35.6477 73.1171 36.1701C73.4857 36.6421 74.0266 36.9338 74.5119 36.9577L74.4801 37.1247C74.4801 37.1247 74.4721 37.1831 74.4482 37.2706C74.427 37.3581 74.3979 37.4721 74.3687 37.5888L74.252 38.0502C74.199 37.8778 74.1221 37.7081 74.0054 37.5437C73.6315 37.0028 73.0031 36.7084 72.4833 36.7429C72.2181 37.1274 72.2553 37.7081 72.6371 38.2491C72.9792 38.737 73.5016 39.0579 73.9868 39.1029L73.9444 39.2674L73.8251 39.7288C73.7535 39.9568 73.6819 40.1822 73.6819 40.1822C73.6395 40.0098 73.5705 39.8348 73.4671 39.6651C73.1038 39.1003 72.4939 38.7768 71.9715 38.7821C71.9052 38.8749 71.8575 38.9836 71.8283 39.1003C71.7965 39.217 71.7779 39.339 71.7832 39.4689C71.7912 39.7288 71.8814 40.0152 72.0537 40.2936C72.3666 40.7974 72.8705 41.1448 73.3531 41.2164L73.3027 41.3781C73.3027 41.3781 73.2311 41.6062 73.1595 41.8316C73.125 41.9456 73.0879 42.0596 73.0534 42.1418C73.0216 42.2241 73.0004 42.2797 73.0004 42.2797C72.9686 42.1047 72.9129 41.9271 72.8068 41.7494C72.4674 41.1634 71.884 40.8107 71.359 40.7868C71.2105 40.9645 71.1521 41.2058 71.1442 41.4657C71.1389 41.7255 71.2105 42.0146 71.3669 42.301C71.6507 42.8207 72.1333 43.1946 72.6132 43.2927L72.5523 43.4518C72.5523 43.4518 72.4674 43.6746 72.3825 43.8973C72.3401 44.0087 72.3003 44.1201 72.2632 44.2023C72.2261 44.2845 72.2022 44.3375 72.2022 44.3375C72.1837 44.1625 72.128 43.9769 72.0352 43.7939C71.7302 43.1919 71.168 42.8074 70.6456 42.7544C70.4892 42.9241 70.4096 43.1548 70.3964 43.42C70.3752 43.6772 70.4309 43.9689 70.5714 44.2659C70.826 44.7989 71.2847 45.202 71.7567 45.3266L71.6878 45.4804C71.6878 45.4804 71.5897 45.6978 71.4916 45.9153C71.3987 46.1354 71.2847 46.3449 71.2847 46.3449C71.2768 46.1699 71.2317 45.9816 71.1495 45.7933C70.8817 45.1728 70.3407 44.7591 69.8236 44.6743C69.6592 44.8334 69.5637 45.0614 69.5372 45.3213C69.5001 45.5785 69.5372 45.8702 69.6619 46.1752C69.8846 46.7241 70.3195 47.151 70.7835 47.3048L70.704 47.4559C70.704 47.4559 70.5926 47.6681 70.4839 47.8776C70.4309 47.9836 70.3699 48.0871 70.3248 48.164C70.2797 48.2409 70.2479 48.2912 70.2479 48.2912C70.2479 48.1136 70.224 47.9306 70.1498 47.7344C69.9191 47.1006 69.402 46.6525 68.8928 46.5358C68.7152 46.6816 68.6171 46.9097 68.564 47.159C68.5136 47.4135 68.5349 47.7079 68.6383 48.0181C68.8266 48.5803 69.2376 49.0337 69.6884 49.2167L69.6009 49.3626C69.6009 49.3626 69.4815 49.5694 69.3542 49.7683C69.2217 49.9645 69.0864 50.1634 69.0864 50.1634C69.097 49.9857 69.0811 49.7974 69.0281 49.6039C68.8425 48.9595 68.3492 48.4769 67.8481 48.3337C67.7579 48.4026 67.681 48.4901 67.6227 48.5935C67.559 48.6917 67.5086 48.8057 67.4742 48.9303C67.4105 49.1796 67.4132 49.4792 67.5007 49.7974C67.6571 50.3702 68.0363 50.8502 68.4765 51.0623L68.3811 51.2029C68.3811 51.2029 68.3492 51.2532 68.2962 51.3248C68.2432 51.3964 68.1689 51.4919 68.0973 51.5847C67.9541 51.773 67.8083 51.9639 67.8083 51.9639C67.8268 51.7862 67.8242 51.5953 67.7818 51.3991C67.6518 50.7547 67.1878 50.2403 66.6972 50.0626C66.3074 50.3066 66.1191 50.8475 66.257 51.4972C66.3843 52.0859 66.7211 52.5791 67.148 52.8204L67.0393 52.9504L66.4241 53.6769C66.4532 53.4993 66.4585 53.3083 66.4294 53.1095C66.3339 52.4492 65.9149 51.9162 65.4323 51.704C65.0266 51.9188 64.8198 52.4624 64.9073 53.1121C64.9815 53.6928 65.2918 54.2152 65.7001 54.4857L65.5835 54.6104C65.5835 54.6104 65.4217 54.7854 65.2573 54.9577C65.1751 55.0452 65.0955 55.1327 65.0346 55.1964C64.9709 55.2574 64.9285 55.2998 64.9285 55.2998C64.9762 55.1301 64.9895 54.9339 64.9709 54.7323C64.9126 54.0641 64.5281 53.5019 64.064 53.258C63.8572 53.3561 63.6954 53.5364 63.5894 53.7751C63.4753 54.0058 63.4196 54.2974 63.4409 54.6236C63.4806 55.2123 63.7564 55.7586 64.1462 56.0529L64.0242 56.1722C64.0242 56.1722 63.9818 56.2147 63.9182 56.2756C63.8545 56.3393 63.7697 56.4215 63.6769 56.4984C63.4965 56.6549 63.3189 56.8113 63.3189 56.8113C63.3746 56.6416 63.4064 56.456 63.4064 56.2544C63.4011 55.5915 63.0431 54.9922 62.6003 54.7244C62.1839 54.8994 61.8816 55.382 61.8896 56.0476C61.8949 56.6469 62.1335 57.2038 62.5048 57.5246L62.3722 57.6307L61.6271 58.222C61.6907 58.0523 61.7358 57.8667 61.7464 57.6652C61.7809 56.9996 61.4759 56.395 61.0463 56.09C60.6035 56.22 60.2959 56.7132 60.2508 57.3655C60.2084 57.9515 60.4126 58.5243 60.7599 58.8691L60.6221 58.9672C60.6221 58.9672 60.4285 59.1051 60.2349 59.2456C60.044 59.3888 59.8424 59.5161 59.8424 59.5161C59.9193 59.357 59.9777 59.1767 59.9989 58.9725C60.0731 58.3042 59.8053 57.6784 59.3969 57.3496C59.1742 57.4026 58.9833 57.5538 58.8268 57.7633C58.6704 57.9701 58.5616 58.2459 58.5192 58.5721C58.445 59.1607 58.612 59.7494 58.9382 60.1127L58.795 60.2055L57.9783 60.6961C58.0631 60.537 58.1294 60.3593 58.1665 60.1605C58.2885 59.5055 58.0631 58.8664 57.6733 58.5084C57.2172 58.58 56.846 59.0308 56.7187 59.6725C56.602 60.2506 56.7319 60.8473 57.0342 61.2318L56.8857 61.314C56.8857 61.314 56.6763 61.428 56.4668 61.542C56.2546 61.6481 56.0425 61.7568 56.0425 61.7568C56.138 61.6057 56.2175 61.4333 56.2679 61.2397C56.427 60.59 56.2414 59.9298 55.8781 59.5532C55.4299 59.6195 55.0163 60.0093 54.8545 60.6563C54.7034 61.2291 54.7935 61.8257 55.0693 62.2315L54.9155 62.3031C54.9155 62.3031 54.6981 62.4038 54.4833 62.5019L54.0457 62.6876C54.1518 62.5417 54.242 62.3773 54.3029 62.1864C54.5018 61.5447 54.3586 60.8791 54.0219 60.4787C53.5684 60.5105 53.1362 60.8817 52.932 61.5128C52.7437 62.0697 52.7941 62.677 53.0434 63.0986L52.8843 63.1596C52.8843 63.1596 52.6642 63.2497 52.4388 63.324C52.216 63.4035 51.9906 63.4831 51.9906 63.4831C52.1046 63.3452 52.2054 63.1834 52.2797 62.9952C52.5263 62.38 52.4229 61.6958 52.1153 61.2768C51.6618 61.2689 51.2163 61.6189 50.967 62.2209C50.747 62.7645 50.7443 63.3691 50.9591 63.8119L50.7973 63.8596L50.3731 63.9763C50.259 64.0055 50.1901 64.1195 50.2166 64.2362C50.2431 64.3502 50.3625 64.4192 50.4791 64.39L50.914 64.2707L51.0784 64.2203C51.1341 64.7055 51.4656 65.2226 52.0145 65.5196C52.6217 65.8511 53.3032 65.8087 53.6983 65.4772C53.6692 64.9415 53.2688 64.3979 52.6668 64.0771C52.4838 63.9816 52.3035 63.9206 52.1259 63.8862C52.1259 63.8862 52.3539 63.8066 52.5793 63.7244C52.8074 63.6475 53.0328 63.5573 53.0328 63.5573L53.1945 63.4963C53.29 63.9763 53.6586 64.4616 54.226 64.7241C54.8466 65.0025 55.5201 64.9256 55.8887 64.565C55.825 64.0373 55.3822 63.5096 54.767 63.2418C54.5787 63.1596 54.3905 63.1065 54.2128 63.0827C54.2128 63.0827 54.4355 62.9872 54.6556 62.8944C54.8757 62.7936 55.0932 62.6929 55.0932 62.6929L55.2496 62.6213C55.3769 63.0906 55.78 63.5547 56.3607 63.7774C56.9971 64.0108 57.6654 63.9021 58.0048 63.5123C57.904 62.9872 57.4347 62.494 56.8009 62.2633C56.6073 62.1917 56.419 62.1546 56.2361 62.1413C56.2361 62.1413 56.4509 62.0326 56.6656 61.9239C56.8778 61.8098 57.0899 61.6932 57.0899 61.6932L57.2411 61.611C57.4002 62.075 57.8271 62.5046 58.4238 62.6929C59.0814 62.9024 59.7231 62.7167 60.0493 62.3269C59.9193 61.8151 59.4129 61.3431 58.7632 61.1496C58.5669 61.0912 58.376 61.0674 58.1957 61.0674L59.023 60.5715L59.1689 60.4787C59.3572 60.9321 59.8106 61.3325 60.4126 61.4784C60.7467 61.5579 61.0729 61.5473 61.3539 61.4678C61.635 61.3829 61.8631 61.2185 62.0116 61.009C61.8472 60.5025 61.3142 60.0703 60.6592 59.9244C60.4629 59.882 60.2694 59.8688 60.0864 59.8767C60.0864 59.8767 60.2906 59.7494 60.4842 59.6036C60.6804 59.463 60.8766 59.3225 60.8766 59.3225L61.0172 59.2217C61.2346 59.6593 61.7146 60.0358 62.3298 60.1472C63.006 60.2665 63.6212 60.004 63.8943 59.5744C63.7007 59.0812 63.1359 58.6808 62.4677 58.5721C62.2661 58.5402 62.0726 58.5402 61.8949 58.5641L62.6506 57.9648L62.7859 57.8587C63.0298 58.283 63.5337 58.6278 64.1462 58.6861C64.8224 58.7524 65.4429 58.4792 65.6736 58.0152C65.4403 57.5299 64.8648 57.1799 64.1887 57.1136C63.9818 57.0924 63.7882 57.103 63.6106 57.1375C63.6106 57.1375 63.7909 56.9784 63.9739 56.8193C64.0667 56.7424 64.1515 56.6575 64.2178 56.5939C64.2841 56.5302 64.3265 56.4904 64.3265 56.4904L64.4512 56.3711C64.7243 56.7795 65.2467 57.0844 65.8672 57.111C66.2119 57.1269 66.5328 57.0526 66.7953 56.92C67.0499 56.7768 67.2435 56.5726 67.3495 56.3393C67.0897 55.8752 66.4798 55.5544 65.8089 55.5411C65.6047 55.5358 65.4191 55.5676 65.2387 55.6101C65.2387 55.6101 65.2812 55.5676 65.3475 55.504C65.4085 55.4377 65.4907 55.3502 65.5729 55.2627C65.7373 55.0877 65.9017 54.91 65.9017 54.91L66.0184 54.7854C66.3153 55.1725 66.8616 55.4457 67.4874 55.435C68.1742 55.4191 68.7231 55.0373 68.9088 54.5626C68.6197 54.1198 67.9913 53.836 67.3151 53.8626C67.1109 53.8705 66.9226 53.9103 66.7502 53.9686L67.3734 53.2314L67.4848 53.0989C67.8056 53.4648 68.3758 53.7088 68.9857 53.6451C69.6619 53.5788 70.2028 53.1758 70.354 52.6878C70.0331 52.2583 69.3967 52.0276 68.7152 52.0912C68.511 52.1124 68.3227 52.1601 68.1557 52.2291C68.1557 52.2291 68.3015 52.0382 68.4474 51.8446C68.5189 51.7491 68.5932 51.6537 68.6489 51.5794C68.7019 51.5078 68.7364 51.4548 68.7364 51.4548L68.8319 51.3116C69.1792 51.659 69.752 51.8552 70.3619 51.7571C70.7013 51.704 70.9983 51.5688 71.2264 51.3858C71.3404 51.293 71.4385 51.1896 71.5154 51.0782C71.587 50.9642 71.6374 50.8396 71.6639 50.7149C71.3139 50.3092 70.6642 50.1156 70.0013 50.2297C69.7971 50.2615 69.6115 50.3225 69.4471 50.402L69.7175 50.0043C69.8475 49.8001 69.9668 49.5933 69.9668 49.5933L70.0543 49.4448C70.4229 49.7683 71.0063 49.93 71.6135 49.7948C71.9477 49.7205 72.2393 49.5694 72.4568 49.3732C72.6795 49.1796 72.8015 48.925 72.8439 48.6731C72.4727 48.2912 71.8045 48.1348 71.1574 48.2939C70.9639 48.3443 70.7782 48.4132 70.6191 48.5007C70.6191 48.5007 70.651 48.4503 70.696 48.3708C70.7438 48.2939 70.8048 48.1905 70.8578 48.0818C70.9692 47.8696 71.0805 47.6548 71.0805 47.6548L71.1601 47.5037C71.5472 47.8033 72.1412 47.928 72.7405 47.7582C73.072 47.6654 73.3531 47.4957 73.5599 47.2889C73.7588 47.0767 73.8728 46.8222 73.8967 46.5676C73.5042 46.2096 72.828 46.093 72.189 46.2918C71.998 46.3528 71.8283 46.4377 71.6692 46.5331C71.6692 46.5331 71.7832 46.321 71.8787 46.0983C71.9768 45.8782 72.0776 45.6581 72.0776 45.6581L72.1492 45.5016C72.5549 45.7774 73.1542 45.8676 73.7429 45.6634C74.0691 45.5493 74.3395 45.3664 74.5331 45.1463C74.7161 44.9235 74.8168 44.661 74.8274 44.4064C74.4138 44.0697 73.7323 43.9954 73.1065 44.2288C72.9182 44.3004 72.7538 44.3958 72.6026 44.5019C72.6026 44.5019 72.6265 44.4462 72.6636 44.364C72.7008 44.2818 72.7405 44.1678 72.783 44.0564C72.8678 43.831 72.9553 43.6056 72.9553 43.6056L73.0163 43.4439C73.4353 43.6958 74.0425 43.7488 74.6153 43.5128C74.9335 43.3829 75.1907 43.1813 75.3737 42.9533C75.5567 42.7226 75.6309 42.4548 75.6283 42.2028C75.196 41.8899 74.5119 41.8528 73.902 42.1233C73.7217 42.2055 73.552 42.3089 73.4088 42.4229C73.4088 42.4229 73.43 42.3672 73.4618 42.2824C73.4963 42.2002 73.536 42.0835 73.5705 41.9695C73.6421 41.7388 73.7164 41.5107 73.7164 41.5107L73.7694 41.3463C74.2043 41.5744 74.8089 41.5956 75.3684 41.3251C75.676 41.1766 75.9226 40.9645 76.0897 40.7258C76.1719 40.6065 76.2382 40.4819 76.2753 40.3519C76.3098 40.222 76.323 40.0921 76.3098 39.9648C75.859 39.6757 75.1801 39.6757 74.5808 39.9754C74.3926 40.0655 74.2335 40.1769 74.0982 40.2989C74.0982 40.2989 74.1698 40.0682 74.2441 39.8401L74.3634 39.3734L74.4058 39.2064C74.8513 39.4106 75.4586 39.3973 75.9969 39.1003C76.5935 38.7715 76.9303 38.1987 76.8772 37.6975C76.4132 37.4323 75.737 37.4668 75.1351 37.793C74.9547 37.8938 74.8009 38.0131 74.6736 38.1404L74.7903 37.6737C74.8195 37.557 74.8487 37.4403 74.8699 37.3528C74.8911 37.2653 74.9017 37.207 74.9017 37.207L74.9335 37.0372C75.3896 37.2202 75.9916 37.1751 76.514 36.8516C77.0894 36.4936 77.389 35.9049 77.3121 35.4091C76.8428 35.1678 76.156 35.2314 75.5779 35.5894C75.4029 35.6981 75.2597 35.8254 75.1377 35.9606L75.318 35.014L75.3498 34.8442C75.8059 35.0034 76.4318 34.9344 76.925 34.5844C77.4792 34.1999 77.7417 33.6006 77.6383 33.1074C77.1557 32.8899 76.4742 32.9827 75.92 33.3672C75.7529 33.4839 75.615 33.6165 75.5036 33.7597L75.6283 32.8051L75.6495 32.6353C76.1189 32.7732 76.7208 32.6751 77.222 32.3065C77.3599 32.2058 77.4818 32.0917 77.5826 31.9698C77.6754 31.8478 77.7497 31.7178 77.8054 31.5853C77.9114 31.3201 77.9353 31.0469 77.869 30.803C77.3758 30.6068 76.7022 30.7287 76.1692 31.1345C76.0075 31.2591 75.8802 31.397 75.7768 31.5428L75.8484 30.5829L75.8616 30.4105C76.3363 30.5299 76.9303 30.4052 77.4129 30.0154C77.6781 29.8006 77.869 29.5408 77.9751 29.2729C78.0281 29.1403 78.0599 29.0025 78.0732 28.8725C78.0785 28.7399 78.0599 28.6126 78.0201 28.4933C77.5137 28.3156 76.856 28.4668 76.3363 28.8937V28.9096Z" fill="#235288"/>
<path d="M71.6737 10.0006L71.4218 7.76249L69.1704 7.65112C65.4474 7.46815 58.354 6.63285 52.6845 3.09542C52.2284 2.81168 51.2606 2.10897 50.7196 1.70591L49.1365 0.525879L47.5534 1.70591C46.8719 2.21239 45.9995 2.84085 45.5858 3.09807C39.9164 6.63285 32.823 7.46815 29.0999 7.65112L26.8486 7.76249L26.5967 10.0006C24.6609 27.2343 30.3807 47.4326 35.5198 52.6672C41.29 58.5461 47.8 60.2167 48.524 60.389L49.1339 60.5349L49.7438 60.389C50.4677 60.2167 56.9751 58.5461 62.7479 52.6672C67.887 47.4326 73.6068 27.2343 71.671 10.0006H71.6737ZM49.4415 59.1003L49.1365 59.1719L48.8316 59.1003C48.1474 58.9385 41.9794 57.3528 36.4691 51.739C31.5316 46.7113 26.0398 26.8657 27.9172 10.1491L28.0419 9.03003L29.1662 8.97434C33.0165 8.78607 40.3619 7.91629 46.2859 4.21976C46.7632 3.92277 47.694 3.24922 48.3436 2.7666L49.1365 2.17792L49.9267 2.76926C50.4067 3.12724 51.4541 3.8936 51.9818 4.22241C57.9058 7.91629 65.2512 8.78607 69.1015 8.97699L70.2258 9.03268L70.3505 10.1517C72.2279 26.8683 66.7361 46.714 61.7986 51.7417C56.2883 57.3554 50.1203 58.9412 49.4361 59.1029L49.4415 59.1003Z" fill="#235288"/>
<path d="M36.6818 38.0517C36.6818 38.0517 36.6712 38.0437 36.6633 38.0411C36.6633 38.0411 36.5943 41.2709 39.3707 42.7797C42.1497 44.2886 42.1497 47.1604 42.1497 47.1604C42.1497 47.1604 36.2045 44.0022 33.33 37.7547C30.4555 31.5098 30.3256 31.9394 30.3256 31.9394C30.1506 32.5175 30.4661 33.663 30.5377 34.2411C31.2139 39.6454 33.0251 44.5962 36.5095 48.6056C39.8507 52.448 43.9291 54.8133 47.6786 56.5555C47.6601 56.5476 48.1984 54.275 48.2169 54.1239C48.6704 50.7244 47.8722 46.5691 45.5731 44.1029C43.1733 41.5281 39.5828 39.8522 36.6792 38.0543L36.6818 38.0517Z" fill="#235288"/>
<path d="M64.9224 37.7519C62.0479 43.9968 56.1027 47.1577 56.1027 47.1577C56.1027 47.1577 56.1027 44.2858 58.8818 42.777C61.6608 41.2682 61.5892 38.0383 61.5892 38.0383C61.5839 38.041 61.5786 38.0463 61.5706 38.0489C58.667 39.8495 55.0765 41.5254 52.6767 44.0976C50.3776 46.5637 49.5768 50.719 50.0329 54.1185C50.0541 54.267 50.5924 56.5396 50.5712 56.5502C54.3208 54.808 58.3991 52.4453 61.7403 48.6002C65.2274 44.5908 67.0359 39.64 67.7121 34.2357C67.7837 33.6577 68.0992 32.5121 67.9242 31.934C67.9242 31.934 67.7943 31.5044 64.9198 37.7493L64.9224 37.7519Z" fill="#235288"/>
<path d="M51.3164 42.687C52.0623 42.0146 52.9464 41.4309 53.8868 40.8967C55.3802 40.0501 56.1038 38.4048 55.6328 36.8466C55.6259 36.8227 55.6174 36.7988 55.6106 36.7749C54.7692 37.6112 53.5045 38.5499 51.6117 39.5227C51.6083 39.5245 51.6049 39.5262 51.5998 39.5279C51.4564 39.6166 51.3096 39.7037 51.1526 39.7907C50.2292 40.301 49.6575 40.9684 49.3213 41.6937C48.985 40.9701 48.4133 40.301 47.4899 39.7907C47.3329 39.7037 47.1861 39.6166 47.0428 39.5279C47.0394 39.5262 47.0359 39.5245 47.0308 39.5227C45.1363 38.5499 43.8734 37.6112 43.0319 36.7749C43.0251 36.7988 43.0166 36.8227 43.0098 36.8466C42.5387 38.4048 43.2641 40.0501 44.7557 40.8967C45.6962 41.4309 46.5802 42.0146 47.3261 42.687C48.1436 43.4243 48.7324 44.3767 49.1079 45.411C49.166 45.6602 49.2308 45.8889 49.294 46.092C49.3179 46.092 49.294 46.092 49.3161 46.092C49.3161 46.0886 49.3179 46.0851 49.3196 46.0817C49.3196 46.0851 49.3213 46.0886 49.323 46.092C49.3469 46.092 49.323 46.092 49.3452 46.092C49.4083 45.8889 49.4732 45.6585 49.5312 45.411C49.9084 44.3767 50.4955 43.4226 51.313 42.687H51.3164Z" fill="#235288"/>
<path d="M51.8634 37.0543C52.4297 35.687 51.7804 34.1196 50.4132 33.5532C49.0459 32.9869 47.4785 33.6362 46.9121 35.0034C46.3458 36.3706 46.9951 37.9381 48.3623 38.5044C49.7296 39.0708 51.297 38.4215 51.8634 37.0543Z" fill="#235288"/>
<path d="M39.6909 31.0255L38.4297 23.8786L37.0283 12.8334H33.9453V10.6422H38.6972L39.8565 17.3177L41.4617 28.8088H44.5319V31.0255H39.6909ZM33.9453 31.0255V13.8908H36.0473L36.2384 23.2544L36.4041 31.0255H33.9453ZM42.4044 27.7515L42.2006 18.2477L42.0477 10.6422H44.5319V27.7515H42.4044Z" fill="#235288"/>
<path d="M47.4811 31.0255V10.6422H49.9526V31.0255H47.4811ZM51.3922 21.8403V19.6363H54.7554V21.8403H51.3922ZM51.3922 12.8461V10.6422H55.0102V12.8461H51.3922Z" fill="#235288"/>
<path d="M60.3899 31.1911C59.1075 31.1062 58.1817 30.7538 57.6127 30.1338C57.0437 29.5053 56.7464 28.5328 56.7209 27.2164C56.7039 26.0104 56.6912 24.885 56.6827 23.8404C56.6742 22.7958 56.67 21.7808 56.67 20.7956C56.67 19.8019 56.6742 18.7913 56.6827 17.7636C56.6912 16.7275 56.7039 15.6234 56.7209 14.4513C56.7464 13.1349 57.0437 12.1667 57.6127 11.5467C58.1817 10.9182 59.1075 10.5615 60.3899 10.4766V12.5913C59.9738 12.6763 59.6765 12.8546 59.4982 13.1264C59.3198 13.3982 59.2264 13.8058 59.2179 14.3494C59.1839 15.5384 59.1584 16.6553 59.1415 17.6999C59.1245 18.7446 59.116 19.768 59.116 20.7702C59.116 21.7723 59.1245 22.8042 59.1415 23.8659C59.1584 24.9275 59.1839 26.0783 59.2179 27.3183C59.2264 27.8704 59.3198 28.2823 59.4982 28.5541C59.6765 28.8173 59.9738 28.9914 60.3899 29.0764V31.1911ZM61.855 31.1911V29.0636C62.2711 28.9872 62.5599 28.8131 62.7213 28.5413C62.8911 28.2695 62.9803 27.8619 62.9888 27.3183C63.0313 26.1038 63.061 24.97 63.078 23.9168C63.095 22.8637 63.1035 21.8403 63.1035 20.8466C63.1035 19.8444 63.095 18.8168 63.078 17.7636C63.061 16.702 63.0313 15.5639 62.9888 14.3494C62.9803 13.8058 62.8911 13.3982 62.7213 13.1264C62.5599 12.8546 62.2711 12.6805 61.855 12.6041V10.4766C63.0865 10.57 63.9825 10.9309 64.543 11.5594C65.1036 12.1879 65.4008 13.1519 65.4348 14.4513C65.4688 15.6234 65.49 16.7275 65.4985 17.7636C65.5155 18.7913 65.524 19.8019 65.524 20.7956C65.524 21.7893 65.5155 22.8085 65.4985 23.8531C65.49 24.8893 65.4688 26.0104 65.4348 27.2164C65.4008 28.5243 65.1036 29.4883 64.543 30.1083C63.9825 30.7283 63.0865 31.0892 61.855 31.1911Z" fill="#235288"/>
<path d="M159.578 3.94407V3.20947H163.039V3.94407H161.749V7.42364H160.868V3.94407H159.578Z" fill="#235288"/>
<path d="M163.609 3.20947H164.708L165.869 6.04087H165.918L167.078 3.20947H168.177V7.42364H167.313V4.68073H167.278L166.187 7.40307H165.599L164.508 4.67044H164.473V7.42364H163.609V3.20947Z" fill="#235288"/>
</svg>
