<svg width="177" height="78" viewBox="0 0 177 78" fill="none" xmlns="http://www.w3.org/2000/svg">
<path d="M87.4119 26.378H84.6439V10.0957H87.8887L92.4245 19.6441C92.8781 20.5978 93.1804 21.3188 93.5177 22.3772L93.762 22.3539C93.6224 21.0862 93.5526 20.1326 93.5526 19.0858V10.0957H96.3322V26.378H93.1339L88.633 16.9575C88.1562 15.9573 87.8305 15.1316 87.4584 14.0267L87.2258 14.0616C87.3653 15.3758 87.4119 16.2946 87.4119 17.3878V26.378Z" fill="black"/>
<path d="M101.589 26.6571C99.6119 26.6571 98.4838 25.5173 98.4838 23.5867V23.5402C98.4838 20.9118 100.519 19.9581 102.868 19.365L105.206 18.7718V17.7484C105.206 16.4109 104.659 15.8061 103.438 15.8061C102.019 15.8061 101.368 16.7133 101.508 18.6671L98.7513 18.3648C98.5769 15.5502 100.263 13.8871 103.496 13.8871C106.474 13.8871 107.997 15.1781 107.997 17.7018V23.6332C107.997 24.5171 108.137 24.6451 109.207 24.6916L108.835 26.5989C108.672 26.6338 108.404 26.6571 108.183 26.6571C105.962 26.6571 105.45 25.7616 105.904 23.5286L105.671 23.482C105.101 25.5522 103.729 26.6571 101.589 26.6571ZM102.624 24.5985C104.113 24.5985 105.206 23.3309 105.206 21.5165V20.6908L103.752 21.0979C102.31 21.5049 101.322 22.0981 101.322 23.2843V23.3309C101.322 24.1566 101.775 24.5985 102.624 24.5985Z" fill="black"/>
<path d="M114.72 26.6455C112.51 26.6455 111.37 25.529 111.37 23.1331V16.2248H109.649V14.1663H111.37V11.3983L114.208 10.5493V14.1663H117.406V16.2248H114.208V22.7959C114.208 23.9589 114.685 24.4125 115.65 24.4125C116.173 24.4125 116.825 24.2729 117.441 24.0054L117.278 26.0756C116.639 26.4129 115.65 26.6455 114.72 26.6455Z" fill="black"/>
<path d="M122.186 12.6776H119.104V10.2818H122.186V12.6776ZM122.058 26.378H119.22V14.1663H122.058V26.378Z" fill="black"/>
<path d="M129.397 26.6687C126.024 26.6687 124.152 24.2962 124.152 20.4V20.1442C124.152 16.2248 126.024 13.8755 129.397 13.8755C132.77 13.8755 134.642 16.2248 134.642 20.1442V20.4C134.642 24.2962 132.758 26.6687 129.397 26.6687ZM129.397 24.7149C130.955 24.7149 131.723 23.4588 131.723 20.8187V19.7255C131.723 17.0854 130.955 15.8177 129.397 15.8177C127.827 15.8177 127.071 17.0854 127.071 19.7255V20.8187C127.071 23.4588 127.827 24.7149 129.397 24.7149Z" fill="black"/>
<path d="M139.573 26.378H136.736V14.1663H139.573C139.55 15.0385 139.399 15.8526 138.922 17.2831L139.166 17.3762C140.097 14.992 141.469 13.9569 143.353 13.9569C145.493 13.9569 146.586 15.1083 146.586 17.3064V26.378H143.76V17.8879C143.76 16.6435 143.202 15.9689 142.179 15.9689C140.62 15.9689 139.573 17.6669 139.573 20.1907V26.378Z" fill="black"/>
<path d="M151.646 26.6571C149.668 26.6571 148.54 25.5173 148.54 23.5867V23.5402C148.54 20.9118 150.576 19.9581 152.925 19.365L155.263 18.7718V17.7484C155.263 16.4109 154.716 15.8061 153.495 15.8061C152.076 15.8061 151.425 16.7133 151.564 18.6671L148.808 18.3648C148.633 15.5502 150.32 13.8871 153.553 13.8871C156.53 13.8871 158.054 15.1781 158.054 17.7018V23.6332C158.054 24.5171 158.193 24.6451 159.263 24.6916L158.891 26.5989C158.728 26.6338 158.461 26.6571 158.24 26.6571C156.018 26.6571 155.507 25.7616 155.96 23.5286L155.728 23.482C155.158 25.5522 153.785 26.6571 151.646 26.6571ZM152.681 24.5985C154.169 24.5985 155.263 23.3309 155.263 21.5165V20.6908L153.809 21.0979C152.367 21.5049 151.378 22.0981 151.378 23.2843V23.3309C151.378 24.1566 151.832 24.5985 152.681 24.5985Z" fill="black"/>
<path d="M163.718 26.378H160.88V10.0957H163.718V26.378Z" fill="black"/>
<path d="M87.5282 48.0531H84.6439V31.7709H93.9248V34.1085H87.5282V38.5513H93.3782V40.7377H87.5282V48.0531Z" fill="black"/>
<path d="M98.8792 34.3528H95.7972V31.9569H98.8792V34.3528ZM98.7513 48.0531H95.9135V35.8414H98.7513V48.0531Z" fill="black"/>
<path d="M104.101 48.0531H101.263V35.8414H104.101C104.078 36.7137 103.927 37.5278 103.45 38.9583L103.694 39.0514C104.625 36.6672 105.997 35.6321 107.881 35.6321C110.021 35.6321 111.114 36.7835 111.114 38.9816V48.0531H108.288V39.5631C108.288 38.3187 107.73 37.6441 106.706 37.6441C105.148 37.6441 104.101 39.3421 104.101 41.8659V48.0531Z" fill="black"/>
<path d="M116.173 48.3323C114.196 48.3323 113.068 47.1925 113.068 45.2619V45.2154C113.068 42.587 115.103 41.6333 117.453 41.0401L119.79 40.447V39.4235C119.79 38.0861 119.244 37.4813 118.023 37.4813C116.604 37.4813 115.952 38.3884 116.092 40.3423L113.336 40.0399C113.161 37.2254 114.848 35.5623 118.081 35.5623C121.058 35.5623 122.582 36.8533 122.582 39.377V45.3084C122.582 46.1923 122.721 46.3202 123.791 46.3668L123.419 48.2741C123.256 48.309 122.989 48.3323 122.768 48.3323C120.546 48.3323 120.035 47.4367 120.488 45.2037L120.256 45.1572C119.686 47.2274 118.313 48.3323 116.173 48.3323ZM117.208 46.2737C118.697 46.2737 119.79 45.006 119.79 43.1917V42.366L118.337 42.773C116.894 43.1801 115.906 43.7732 115.906 44.9595V45.006C115.906 45.8318 116.359 46.2737 117.208 46.2737Z" fill="black"/>
<path d="M128.246 48.0531H125.408V35.8414H128.246C128.222 36.7137 128.071 37.5278 127.594 38.9583L127.838 39.0514C128.769 36.6672 130.141 35.6321 132.025 35.6321C134.165 35.6321 135.259 36.7835 135.259 38.9816V48.0531H132.432V39.5631C132.432 38.3187 131.874 37.6441 130.851 37.6441C129.292 37.6441 128.246 39.3421 128.246 41.8659V48.0531Z" fill="black"/>
<path d="M142.527 48.3439C139.097 48.3439 137.317 46.1342 137.317 41.9008V41.8542C137.317 37.7139 139.143 35.5507 142.539 35.5507C145.609 35.5507 147.249 37.1789 147.494 40.2609L144.667 40.5982C144.539 38.4699 143.888 37.4929 142.527 37.4929C140.969 37.4929 140.236 38.749 140.236 41.389V42.366C140.236 45.0874 140.992 46.3784 142.562 46.3784C143.9 46.3784 144.609 45.4015 144.737 43.436L147.633 43.7965C147.296 46.7622 145.551 48.3439 142.527 48.3439Z" fill="black"/>
<path d="M156.879 43.8198L159.601 44.1687C159.182 46.9483 157.414 48.3323 154.483 48.3323C151.122 48.3323 149.273 46.2621 149.273 42.4939V41.4123C149.273 37.6441 151.134 35.5623 154.565 35.5623C157.763 35.5623 159.542 37.5394 159.542 41.0634C159.542 41.61 159.519 42.1217 159.461 42.7149H152.087V42.9475C152.087 45.2852 152.948 46.4133 154.576 46.4133C155.891 46.4133 156.658 45.669 156.879 43.8198ZM154.541 37.4813C152.96 37.4813 152.146 38.5745 152.087 40.7726H156.728V40.4586C156.728 38.4233 155.995 37.4813 154.541 37.4813Z" fill="black"/>
<path d="M90.6799 70.0191C86.3884 70.0191 84.167 67.1464 84.167 61.6104V61.5639C84.167 56.0396 86.3884 53.1553 90.6799 53.1553C94.9599 53.1553 97.1812 56.0396 97.1812 61.5639V61.6104C97.1812 67.1464 94.9599 70.0191 90.6799 70.0191ZM90.6799 67.7396C93.0758 67.7396 94.2272 65.9485 94.2272 62.2385V61.0406C94.2272 57.2607 93.0758 55.4348 90.6683 55.4348C88.2725 55.4348 87.1095 57.2607 87.1095 61.0406V62.2385C87.1095 65.9485 88.2725 67.7396 90.6799 67.7396Z" fill="black"/>
<path d="M102.217 69.7283H99.3793V53.446H102.217V69.7283Z" fill="black"/>
<path d="M104.299 74.078L103.938 71.6589L105.52 71.5077C106.881 71.3798 107.334 71.0309 107.486 70.4494L107.637 69.8679L103.659 57.5166H106.578L108.3 64.0877C108.579 65.1228 108.777 66.1462 108.951 67.3674H109.195C109.37 66.1462 109.567 65.146 109.847 64.1109L111.521 57.5166H114.289L110.8 69.1352C109.73 72.7638 108.369 73.8454 104.299 74.078Z" fill="black"/>
<path d="M118.592 69.7283H115.755V57.5166H118.604C118.627 58.2609 118.488 58.9239 117.953 60.5753L118.185 60.68C119.279 58.1795 120.407 57.3073 122.07 57.3073C123.942 57.3073 124.803 58.5633 124.349 60.6917L124.582 60.7614C125.443 58.3191 126.768 57.3073 128.594 57.3073C130.583 57.3073 131.537 58.4121 131.537 60.68V69.7283H128.699V61.1569C128.699 59.9473 128.234 59.3425 127.303 59.3425C125.885 59.3425 125.07 61.0871 125.07 63.4247V69.7283H122.244V61.1801C122.244 59.9938 121.756 59.3309 120.872 59.3309C119.5 59.3309 118.592 61.0057 118.592 63.4945V69.7283Z" fill="black"/>
<path d="M140.399 57.3073C143.004 57.3073 144.377 59.3891 144.377 63.3666V63.8783C144.377 67.8559 143.004 69.9377 140.399 69.9377C138.329 69.9377 137.108 68.6932 136.468 66.7161L136.224 66.8091C136.654 68.2978 136.829 69.3329 136.829 70.4843V73.7989H133.991V57.5166H136.817C136.794 58.1214 136.608 59.0983 136.224 60.4358L136.468 60.5172C137.119 58.4703 138.341 57.3073 140.399 57.3073ZM139.283 59.2146C137.689 59.2146 136.829 60.6335 136.829 63.2852V63.9481C136.829 66.6114 137.689 68.0419 139.283 68.0419C140.771 68.0419 141.516 66.751 141.516 64.0644V63.1689C141.516 60.4939 140.771 59.2146 139.283 59.2146Z" fill="black"/>
<path d="M149.447 56.0279H146.365V53.6321H149.447V56.0279ZM149.319 69.7283H146.482V57.5166H149.319V69.7283Z" fill="black"/>
<path d="M154.413 70.0074C152.436 70.0074 151.308 68.8677 151.308 66.9371V66.8905C151.308 64.2621 153.344 63.3084 155.693 62.7153L158.031 62.1222V61.0987C158.031 59.7612 157.484 59.1565 156.263 59.1565C154.844 59.1565 154.193 60.0636 154.332 62.0175L151.576 61.7151C151.401 58.9006 153.088 57.2375 156.321 57.2375C159.298 57.2375 160.822 58.5284 160.822 61.0522V66.9836C160.822 67.8675 160.961 67.9954 162.031 68.0419L161.659 69.9493C161.496 69.9842 161.229 70.0074 161.008 70.0074C158.786 70.0074 158.275 69.1119 158.728 66.8789L158.496 66.8324C157.926 68.9026 156.553 70.0074 154.413 70.0074ZM155.449 67.9489C156.937 67.9489 158.031 66.6812 158.031 64.8669V64.0412L156.577 64.4482C155.135 64.8553 154.146 65.4484 154.146 66.6347V66.6812C154.146 67.507 154.6 67.9489 155.449 67.9489Z" fill="black"/>
<path d="M166.765 69.9377C164.16 69.9377 162.787 67.8559 162.787 63.8783V63.3666C162.787 59.3891 164.16 57.3073 166.765 57.3073C168.835 57.3073 170.044 58.5517 170.696 60.5288L170.94 60.4358C170.498 58.9471 170.335 57.912 170.335 56.7606V53.446H173.161V69.7283H170.347C170.359 69.1236 170.556 68.1466 170.94 66.8091L170.696 66.7161C170.033 68.7746 168.823 69.9377 166.765 69.9377ZM167.881 68.0303C169.475 68.0303 170.335 66.6114 170.335 63.9597V63.2968C170.335 60.6335 169.475 59.203 167.881 59.203C166.381 59.203 165.648 60.4939 165.648 63.1805V64.076C165.648 66.751 166.381 68.0303 167.881 68.0303Z" fill="black"/>
<path d="M33.2376 75.8494L32.7303 75.7099L32.5908 76.2013L33.1108 76.3439C33.2534 76.3788 33.3929 76.2964 33.4246 76.1601C33.4563 76.0238 33.3739 75.8843 33.2376 75.8494Z" fill="#183041"/>
<path d="M32.524 73.7544C32.2292 73.0348 31.6934 72.6163 31.1513 72.6258C30.7836 73.1267 30.6599 73.9446 30.9548 74.6801C31.0435 74.9052 31.164 75.0954 31.3003 75.2634C31.3003 75.2634 31.034 75.1683 30.7645 75.0732C30.4951 74.9813 30.232 74.8766 30.232 74.8766L30.0417 74.8037C30.3397 74.2997 30.3968 73.5737 30.1749 72.908C29.9308 72.1535 29.4141 71.7096 28.872 71.6716C28.4662 72.1503 28.295 72.946 28.5359 73.7132C28.6088 73.9414 28.7166 74.1412 28.8434 74.3155C28.8434 74.3155 28.5803 74.2046 28.3203 74.0936C28.0604 73.9731 27.8036 73.8558 27.8036 73.8558L27.6197 73.7702C27.9526 73.2852 28.0572 72.5719 27.8765 71.8872C27.6831 71.1136 27.1886 70.6445 26.6528 70.5684C26.2185 71.0185 25.9934 71.8079 26.1868 72.5846C26.247 72.816 26.339 73.0221 26.4563 73.2028C26.4563 73.2028 26.2027 73.076 25.949 72.946C25.6986 72.8097 25.4482 72.6734 25.4482 72.6734L25.2706 72.5751C25.632 72.1154 25.7842 71.4021 25.6479 70.711C25.4925 69.9438 25.0519 69.4081 24.5066 69.3193C24.0406 69.7473 23.7743 70.5113 23.917 71.2943C23.9613 71.5321 24.0406 71.7445 24.142 71.9347L23.1656 71.3482L22.9944 71.2373C23.3844 70.803 23.5841 70.0992 23.4953 69.3954C23.4446 69.0055 23.3146 68.6758 23.1276 68.4285C22.9437 68.178 22.7123 67.9973 22.446 67.9339C21.9578 68.327 21.6376 69.0752 21.7264 69.8741C21.7517 70.1182 21.8183 70.3338 21.9134 70.524C21.9134 70.524 21.6725 70.3718 21.4442 70.2006C21.2128 70.0358 20.9814 69.8678 20.9814 69.8678L20.8165 69.7505C21.2318 69.3415 21.4759 68.6536 21.4252 67.953C21.3713 67.1699 21.0036 66.5834 20.4741 66.4281C19.9574 66.7927 19.5928 67.5155 19.6372 68.3112C19.6499 68.5521 19.7006 68.774 19.7799 68.9769L18.889 68.27L18.7305 68.1432C19.1712 67.7596 19.4565 67.0938 19.466 66.3774C19.4755 65.5817 19.111 65.0079 18.6164 64.7955C18.087 65.1156 17.659 65.8321 17.6527 66.6247C17.6527 66.8624 17.6907 67.0875 17.7573 67.2904C17.7573 67.2904 17.5417 67.1034 17.3293 66.9163C17.2215 66.8244 17.1169 66.7261 17.0408 66.65C16.9648 66.5771 16.914 66.5264 16.914 66.5264L16.7682 66.3837C17.2342 66.0318 17.5671 65.3819 17.6115 64.675C17.6368 64.2851 17.5703 63.9363 17.4339 63.6605C17.3103 63.3752 17.1137 63.1596 16.8665 63.0423C16.3085 63.334 15.8488 64.0029 15.7823 64.805C15.7633 65.0459 15.7759 65.2805 15.833 65.4834C15.833 65.4834 15.7823 65.4327 15.7062 65.3597C15.6333 65.2805 15.535 65.179 15.4399 65.0744C15.2465 64.8652 15.05 64.6591 15.05 64.6591L14.9105 64.5101C15.3987 64.19 15.7728 63.5654 15.8584 62.868C15.963 62.0913 15.7157 61.4414 15.2307 61.1846C14.6537 61.4382 14.1528 62.0754 14.0387 62.8648C14.0038 63.1026 14.0101 63.3308 14.045 63.5432L13.3095 62.6746L13.1796 62.5193C13.69 62.2308 14.0926 61.638 14.2447 60.9373C14.4064 60.1607 14.1845 59.5139 13.7185 59.2223C13.132 59.4347 12.5772 60.0497 12.4219 60.8201C12.3743 61.0546 12.368 61.2797 12.3902 61.4953C12.3902 61.4953 12.219 61.2702 12.0446 61.042C11.959 60.9278 11.8734 60.8169 11.8069 60.7313C11.7435 60.6457 11.7054 60.5855 11.7054 60.5855L11.5913 60.4174C12.1175 60.1638 12.5709 59.59 12.7579 58.9053C12.8625 58.5248 12.8657 58.1698 12.7896 57.8686C12.7516 57.7196 12.6913 57.5833 12.6121 57.466C12.5392 57.3424 12.4504 57.2377 12.3426 57.1553C11.7435 57.3297 11.1538 57.9067 10.9319 58.6738C10.8685 58.9053 10.8495 59.1272 10.8622 59.3427C10.8622 59.3427 10.7036 59.1082 10.542 58.8704C10.3898 58.6295 10.2471 58.3853 10.2471 58.3853L10.1425 58.211C10.6846 57.9922 11.1728 57.4502 11.3979 56.7781C11.5215 56.4072 11.5501 56.0521 11.4867 55.7509C11.4233 55.4498 11.306 55.1803 11.0936 55.0059C10.4817 55.1423 9.86671 55.678 9.59091 56.4389C9.50214 56.6703 9.47678 56.889 9.47361 57.1046C9.47361 57.1046 9.43557 57.0444 9.38168 56.9524C9.32461 56.8605 9.25487 56.74 9.19146 56.6101C9.05832 56.3564 8.92834 56.106 8.92834 56.106L8.83323 55.9253C9.38802 55.7382 9.90792 55.2278 10.1742 54.5748C10.32 54.2102 10.3676 53.8615 10.3232 53.554C10.2915 53.2433 10.1774 52.9707 9.98084 52.7805C9.36265 52.8819 8.71594 53.3765 8.39575 54.1183C8.29747 54.3434 8.24358 54.5684 8.23407 54.7777C8.23407 54.7777 8.09775 54.5272 7.9868 54.2641C7.8695 54.0042 7.7522 53.7442 7.7522 53.7442L7.66978 53.5603C8.23407 53.4082 8.78251 52.9295 9.08685 52.2923C9.25487 51.9372 9.32144 51.5885 9.29608 51.281C9.2834 50.9671 9.18512 50.6881 8.99808 50.4853C8.37356 50.5487 7.70148 51.0083 7.33691 51.728C7.22595 51.9467 7.15621 52.1686 7.13719 52.3779C7.13719 52.3779 7.10866 52.3145 7.06427 52.2162C7.01989 52.1179 6.97234 51.9848 6.92161 51.8516C6.82017 51.5853 6.71872 51.319 6.71872 51.319L6.64581 51.1288C7.21644 51.0083 7.79341 50.5645 8.13579 49.9432C8.32283 49.5976 8.40843 49.2552 8.40209 48.9445C8.39258 48.6339 8.32283 48.3454 8.1453 48.133C7.52078 48.1615 6.82017 48.5831 6.41439 49.2838C6.28758 49.4962 6.221 49.7086 6.18296 49.9178C6.18296 49.9178 6.1576 49.8512 6.11956 49.7529C6.07835 49.6547 6.03396 49.5184 5.99275 49.382C5.90716 49.1094 5.82156 48.8399 5.82156 48.8399L5.76133 48.6465C6.3383 48.561 6.94064 48.1457 7.31472 47.5433C7.52078 47.2105 7.62857 46.8681 7.63808 46.5574C7.64442 46.4021 7.62222 46.2531 7.58418 46.1167C7.54931 45.9773 7.49542 45.8505 7.41299 45.7363C6.78847 45.73 6.0625 46.1167 5.62501 46.792C5.4982 46.9949 5.41578 47.2041 5.36823 47.4102C5.36823 47.4102 5.28263 47.1375 5.19704 46.8681L5.00366 46.1199C5.5838 46.0629 6.20832 45.6824 6.61728 45.0991C7.07061 44.4492 7.11817 43.755 6.80115 43.2985C6.17979 43.2604 5.42846 43.6091 4.98146 44.2558C4.84515 44.4524 4.75004 44.6585 4.68664 44.8614C4.68664 44.8614 4.61689 44.5855 4.54715 44.3097C4.51228 44.1703 4.4774 44.0339 4.45204 43.9293C4.42668 43.8247 4.414 43.755 4.414 43.755L4.37596 43.5552C4.95927 43.5299 5.60282 43.1812 6.04348 42.6137C6.53168 41.986 6.62362 41.2886 6.32879 40.8162C5.7011 40.7496 4.94976 41.0603 4.46155 41.688C4.31256 41.8782 4.20794 42.0779 4.13186 42.2808L3.88141 40.962C4.47423 40.962 5.1051 40.6514 5.5838 40.1029C6.10688 39.4974 6.23686 38.8 5.97056 38.3118C5.34603 38.2135 4.58202 38.4925 4.05894 39.098C3.90043 39.2818 3.78314 39.4784 3.69754 39.6749L3.54854 38.5432L3.52318 38.3403C4.10966 38.3688 4.7754 38.0803 5.25093 37.5604C5.38408 37.4146 5.48869 37.2656 5.57112 37.1103C5.66305 36.9549 5.72646 36.7996 5.76767 36.6442C5.85009 36.3336 5.83107 36.0356 5.71378 35.7851C5.09876 35.6615 4.3189 35.9088 3.76411 36.4889C3.59609 36.6664 3.46612 36.8566 3.37101 37.05L3.28859 35.9119L3.27274 35.709C3.85605 35.7629 4.53764 35.503 5.0417 35.0021C5.32067 34.7231 5.50137 34.4124 5.5838 34.1081C5.62501 33.9559 5.64086 33.8038 5.63135 33.6611C5.63135 33.5153 5.60282 33.3758 5.5521 33.2458C4.94659 33.0968 4.14771 33.3124 3.5739 33.8703C3.40588 34.0384 3.27591 34.2254 3.1808 34.4156C3.1808 34.4156 3.15861 34.1303 3.13959 33.8481C3.12691 33.5628 3.12374 33.2775 3.12374 33.2775V33.0746C3.69754 33.1507 4.39181 32.9225 4.9244 32.4374C5.51088 31.9017 5.72012 31.2201 5.50771 30.697C4.89904 30.5226 4.10966 30.7097 3.52001 31.2454C3.34248 31.4071 3.20299 31.5878 3.09521 31.7748L3.07618 30.6336V30.4307C3.65316 30.529 4.33792 30.3261 4.88319 29.8601C5.4982 29.3433 5.74231 28.6681 5.56161 28.1386C4.96244 27.9453 4.16356 28.1038 3.54537 28.6173C3.35833 28.7727 3.20933 28.9502 3.09521 29.1309L3.13642 27.9896L3.14276 27.7868C3.71656 27.9041 4.42034 27.7265 4.97512 27.2795C5.59331 26.785 5.81839 26.1161 5.6789 25.5771C5.08925 25.3616 4.28085 25.4947 3.64048 25.9861C3.45344 26.1351 3.30761 26.3063 3.19031 26.4838C3.19031 26.4838 3.20299 26.1985 3.2125 25.9132C3.23786 25.6279 3.26323 25.3457 3.26323 25.3457L2.756 25.3108C2.756 25.3108 2.73064 25.5962 2.70527 25.8815C2.69259 26.17 2.68308 26.4553 2.68308 26.4553C2.57847 26.2619 2.44532 26.0749 2.27096 25.9005C1.72252 25.3267 0.948993 25.0667 0.327638 25.2094C0.0645127 25.7515 0.273745 26.5123 0.847548 27.0893C1.36746 27.6124 2.05856 27.8406 2.6387 27.7646L2.63236 27.9706L2.59115 29.1182C2.48653 28.9312 2.35338 28.7473 2.17585 28.5793C1.59888 28.0213 0.812675 27.7868 0.200831 27.9548C-0.0210821 28.5096 0.172299 29.2609 0.749272 29.8157C1.28186 30.3197 1.99515 30.5258 2.56579 30.4275V30.6336L2.59115 31.7844C2.47702 31.6005 2.33119 31.423 2.14732 31.2581C1.54182 30.7223 0.742932 30.5163 0.140597 30.7033C-0.0496138 31.2676 0.181809 32.0126 0.787314 32.5484C1.33576 33.0334 2.03637 33.2109 2.61017 33.0936V33.2997C2.61017 33.2997 2.61334 33.5882 2.62919 33.8735C2.65138 34.1588 2.6704 34.4473 2.6704 34.4473C2.54676 34.2666 2.39143 34.0954 2.19804 33.9401C1.57669 33.4265 0.790484 33.249 0.18498 33.4614C0.137427 33.604 0.115236 33.7594 0.121576 33.9147C0.134257 34.0732 0.172299 34.2349 0.235703 34.3934C0.36251 34.7136 0.590763 35.0243 0.907781 35.2811C1.48158 35.7439 2.19487 35.8929 2.76234 35.7534L2.77819 35.9595L2.86061 37.1071C2.73698 36.9327 2.58164 36.7647 2.39143 36.6189C1.75739 36.1307 0.948993 35.9848 0.35934 36.2226C0.280085 36.5143 0.308617 36.8408 0.435424 37.1578C0.498828 37.3163 0.587593 37.4717 0.701719 37.6175C0.822186 37.7633 0.968014 37.8996 1.13286 38.0201C1.7352 38.4608 2.45483 38.5781 3.01278 38.4132L3.03814 38.6161L3.18714 39.7574C3.05399 39.5893 2.88914 39.4277 2.68942 39.2882C2.02686 38.8285 1.21212 38.7175 0.635145 38.9775C0.508338 39.5672 0.825356 40.2836 1.48792 40.7433C2.07758 41.1586 2.82891 41.241 3.37101 41.054L3.40905 41.2569L3.62463 42.3886C3.48197 42.2269 3.30761 42.0748 3.09838 41.9448C2.41045 41.5168 1.5862 41.4439 1.02508 41.7292C0.933142 42.322 1.2882 43.0258 1.9793 43.4538C2.60066 43.8406 3.32346 43.8913 3.86873 43.6757L3.90677 43.8786C3.90677 43.8786 3.91628 43.9515 3.94481 44.053C3.97018 44.1576 4.00505 44.2971 4.03992 44.4366C4.10966 44.7155 4.17941 44.9945 4.17941 44.9945C4.02724 44.8392 3.84337 44.6965 3.6278 44.5792C2.90817 44.1893 2.09977 44.1481 1.54499 44.4651C1.48158 45.0642 1.8842 45.749 2.59749 46.1421C3.2442 46.4972 3.96701 46.513 4.4996 46.2689L4.55032 46.4686L4.69298 47.0266L4.86734 47.575C4.70566 47.4292 4.51545 47.2961 4.29036 47.1883C3.5739 46.83 2.76234 46.83 2.22341 47.1756C2.21073 47.3278 2.22341 47.4831 2.26462 47.6384C2.309 47.7906 2.38826 47.9428 2.48653 48.0854C2.68625 48.3707 2.98108 48.6244 3.34882 48.8019C4.01456 49.1221 4.74053 49.0999 5.26044 48.8272L5.32384 49.0238C5.32384 49.0238 5.40944 49.2996 5.4982 49.5722C5.53942 49.7117 5.58697 49.8449 5.62818 49.9463C5.66622 50.0478 5.69158 50.1143 5.69158 50.1143C5.52039 49.978 5.32067 49.8576 5.10193 49.7561C4.37279 49.4328 3.55488 49.4803 3.03814 49.8512C3.03497 50.1556 3.12374 50.4757 3.34248 50.7484C3.55805 51.0242 3.86873 51.262 4.24915 51.4173C4.93391 51.6994 5.65988 51.636 6.16077 51.3349L6.23369 51.5282C6.23369 51.5282 6.33513 51.7977 6.43975 52.0672C6.49364 52.2003 6.54119 52.3366 6.58241 52.4349C6.62679 52.5332 6.65532 52.5998 6.65532 52.5998C6.47462 52.473 6.27807 52.3588 6.05299 52.2732C5.30482 51.9911 4.49009 52.083 3.99554 52.4856C4.00505 52.79 4.12552 53.1038 4.34743 53.3701C4.57885 53.6332 4.90221 53.852 5.29214 53.9883C5.99275 54.2324 6.71238 54.1246 7.19742 53.7949L7.28302 53.982C7.28302 53.982 7.40031 54.2451 7.52078 54.5082C7.63491 54.7745 7.77122 55.0281 7.77122 55.0281C7.58101 54.914 7.37812 54.8126 7.14987 54.7396C6.38585 54.5019 5.57746 54.6414 5.10827 55.0693C5.1368 55.3737 5.27629 55.678 5.51088 55.9316C5.75816 56.1821 6.0942 56.3818 6.49047 56.4928C7.20693 56.6956 7.91705 56.5466 8.3799 56.1884L8.475 56.3691C8.475 56.3691 8.60815 56.6227 8.7413 56.8795C8.8047 57.0095 8.87762 57.1331 8.93468 57.2251C8.99174 57.317 9.02662 57.3804 9.02662 57.3804C8.8364 57.2758 8.61449 57.1934 8.38307 57.1331C7.60954 56.9429 6.81066 57.13 6.36683 57.5865C6.41756 57.8876 6.56338 58.1888 6.82968 58.4234C7.08963 58.658 7.43835 58.8387 7.8378 58.9275C8.56377 59.086 9.26121 58.8957 9.70186 58.509L9.80648 58.6865C9.80648 58.6865 9.95231 58.937 10.1045 59.1779C10.2662 59.4157 10.4278 59.6534 10.4278 59.6534C10.2313 59.5583 10.0094 59.4886 9.76527 59.4474C8.97272 59.311 8.19603 59.5393 7.77756 60.0275C7.80927 60.1765 7.8695 60.3255 7.95509 60.4618C8.04703 60.595 8.16433 60.7186 8.30064 60.8296C8.57328 61.0483 8.93151 61.21 9.33412 61.2734C10.0664 61.3907 10.748 61.1529 11.1633 60.7408L11.2774 60.912C11.2774 60.912 11.3155 60.9722 11.3821 61.061C11.4486 61.1466 11.5342 61.2607 11.623 61.378C11.7974 61.6063 11.9717 61.8377 11.9717 61.8377C11.772 61.7553 11.5469 61.695 11.3028 61.6728C10.4881 61.5967 9.72723 61.8725 9.34363 62.3861C9.52433 62.9694 10.1711 63.4513 10.9794 63.5306C11.7086 63.6066 12.3902 63.315 12.7738 62.8775L12.9069 63.036L13.6519 63.9173C13.449 63.8476 13.2239 63.8 12.9767 63.7905C12.1683 63.7588 11.4138 64.0949 11.0714 64.6274C11.2933 65.1949 11.9495 65.6514 12.7706 65.6704C13.5188 65.6831 14.1718 65.3566 14.5269 64.8937L14.6664 65.0427C14.6664 65.0427 14.8629 65.252 15.0595 65.4644C15.1577 65.569 15.256 65.6736 15.3289 65.7529C15.405 65.8289 15.4589 65.8797 15.4589 65.8797C15.2433 65.8321 15.0214 65.7941 14.7773 65.7972C13.9753 65.8131 13.2461 66.1967 12.9386 66.7515C13.0623 67.0336 13.2968 67.2745 13.6012 67.4457C13.915 67.6074 14.2986 67.693 14.7107 67.674C15.4526 67.6423 16.0803 67.2745 16.4036 66.7895L16.5526 66.9322C16.5526 66.9322 16.6033 66.9829 16.6826 67.0558C16.7587 67.1319 16.8633 67.2333 16.9743 67.3253C17.1898 67.5155 17.4086 67.7057 17.4086 67.7057C17.1962 67.6645 16.9647 67.6518 16.7175 67.6772C15.9091 67.7564 15.2211 68.1749 14.9422 68.755C15.218 69.3098 15.963 69.6363 16.7682 69.5571C17.5005 69.4842 18.1028 69.072 18.3945 68.568L18.5562 68.6948L19.4597 69.4112C19.2473 69.3827 19.0159 69.3827 18.7749 69.4208C17.976 69.5507 17.304 70.0294 17.0694 70.6191C17.3991 71.1327 18.1314 71.4497 18.9398 71.3038C19.6753 71.1707 20.2491 70.7205 20.509 70.1974L20.677 70.3179C20.677 70.3179 20.9116 70.4859 21.1462 70.654C21.3776 70.8251 21.6217 70.9805 21.6217 70.9805C21.403 70.971 21.1716 70.9868 20.937 71.0376C20.154 71.2087 19.5167 71.7286 19.3202 72.3342C19.4977 72.5846 19.7704 72.7811 20.1064 72.8826C20.4424 72.9809 20.8355 72.9936 21.2318 72.8953C21.9514 72.7241 22.4935 72.2422 22.7186 71.7001L22.893 71.8111L23.8821 72.4039C23.6665 72.4039 23.4383 72.4324 23.2037 72.5022C22.427 72.7336 21.8215 73.2947 21.6661 73.9097C22.0592 74.3757 22.8232 74.5945 23.6094 74.3472C24.3196 74.1221 24.8331 73.6054 25.0233 73.0538L25.2041 73.1521C25.2041 73.1521 25.4577 73.2884 25.7113 73.4279C25.9681 73.5578 26.2248 73.6878 26.2248 73.6878C26.0093 73.7037 25.781 73.7481 25.5496 73.8336C24.7919 74.1095 24.2276 74.6991 24.1103 75.3268C24.5161 75.7928 25.3182 75.9228 26.0758 75.6438C26.7701 75.3775 27.252 74.8259 27.4042 74.2616L27.5912 74.3472L28.1143 74.5882C28.3806 74.7023 28.6437 74.8132 28.6437 74.8132C28.4281 74.8418 28.2062 74.902 27.9811 75.0034C27.2456 75.3236 26.7162 75.9545 26.6401 76.5854C27.0776 77.0197 27.8829 77.1116 28.6278 76.7756C29.3063 76.4617 29.7469 75.8816 29.861 75.3078L30.0544 75.3807C30.0544 75.3807 30.3207 75.4885 30.5934 75.5804L31.1355 75.7738C30.9231 75.815 30.7043 75.8879 30.4887 76.0021C29.7691 76.3825 29.2904 77.0355 29.2555 77.6759C29.7311 78.0722 30.5426 78.1229 31.2686 77.7266C31.928 77.3716 32.3211 76.7534 32.3877 76.1732L32.5842 76.2335L32.7237 75.7421L32.5303 75.685C32.784 75.1556 32.7839 74.436 32.5208 73.7829L32.524 73.7544Z" fill="#183041"/>
<path d="M3.26871 25.137C3.70937 24.8009 4.0359 24.2525 4.09296 23.5868C4.1627 22.7879 3.83618 22.0651 3.3131 21.6783C2.73295 21.9383 2.28596 22.5977 2.21621 23.4156C2.15598 24.0972 2.38106 24.7058 2.75831 25.0989L2.73929 25.305L3.24652 25.3399L3.26554 25.1338L3.26871 25.137Z" fill="#183041"/>
<path d="M67.1296 33.9311C66.9363 34.0864 66.7809 34.2608 66.6573 34.4383C66.6573 34.4383 66.6795 34.153 66.6985 33.8645C66.7112 33.576 66.7143 33.2907 66.7143 33.2907V33.0846C67.2913 33.2019 67.9951 33.0244 68.5435 32.5393C69.149 32.0036 69.3836 31.2586 69.1903 30.6943C68.5879 30.5073 67.7922 30.7133 67.1835 31.2491C66.9997 31.4108 66.8538 31.5915 66.7397 31.7753L66.7587 30.6246V30.4185C67.3325 30.5168 68.0458 30.3107 68.5816 29.8067C69.1586 29.2487 69.3519 28.5005 69.13 27.9458C68.5182 27.7809 67.732 28.0155 67.155 28.5703C66.9806 28.7383 66.8443 28.9222 66.7397 29.1124L66.6985 27.9648L66.6922 27.7587C67.2723 27.8348 67.9634 27.6065 68.4833 27.0835C69.0571 26.5065 69.2664 25.7488 69.0032 25.2035C68.3819 25.0577 67.6083 25.3177 67.0599 25.8946C66.8855 26.069 66.7492 26.2592 66.6478 26.4494C66.6478 26.4494 66.6351 26.1609 66.6256 25.8756C66.6002 25.5903 66.5749 25.305 66.5749 25.305L66.5558 25.0989C66.9331 24.7027 67.1582 24.0972 67.0979 23.4156C67.025 22.5977 66.5812 21.9383 66.0011 21.6783C65.478 22.0651 65.1514 22.7879 65.2212 23.5868C65.2783 24.2525 65.6048 24.8009 66.0454 25.137L66.0645 25.343C66.0645 25.343 66.0898 25.6284 66.1152 25.9105L66.1374 26.4811C66.0201 26.3036 65.8743 26.1324 65.6872 25.9834C65.0437 25.4889 64.2353 25.3589 63.6488 25.5745C63.5093 26.1134 63.7312 26.7823 64.3526 27.2768C64.9073 27.7238 65.6143 27.9014 66.1849 27.7841L66.1913 27.987L66.2325 29.1282C66.1152 28.9444 65.9662 28.77 65.7823 28.6147C65.1673 28.0979 64.3652 27.9394 63.7661 28.136C63.5822 28.6686 63.8263 29.3438 64.4445 29.8574C64.9898 30.3202 65.6745 30.5263 66.2547 30.428V30.6309L66.2293 31.7722C66.1215 31.5851 65.9852 31.4044 65.8045 31.2427C65.218 30.707 64.4255 30.5199 63.8168 30.6943C63.6044 31.2174 63.8136 31.899 64.4001 32.4347C64.9327 32.9198 65.627 33.148 66.2039 33.0719V33.2748C66.2039 33.2748 66.2008 33.5601 66.1849 33.8455C66.1627 34.1308 66.1437 34.4129 66.1437 34.4129C66.0454 34.2227 65.9186 34.0388 65.7506 33.8677C65.1768 33.3097 64.3779 33.091 63.7724 33.2431C63.7185 33.3731 63.6932 33.5126 63.6932 33.6584C63.6837 33.8043 63.6995 33.9533 63.7407 34.1054C63.8231 34.4098 64.0038 34.7204 64.2828 34.9994C64.7869 35.5035 65.4685 35.7603 66.0518 35.7064L66.0359 35.9093L65.9535 37.0473C65.8584 36.854 65.7284 36.6606 65.5604 36.4862C65.0056 35.9029 64.2258 35.6556 63.6107 35.7824C63.4903 36.0329 63.4744 36.3341 63.5568 36.6416C63.5981 36.7969 63.6646 36.9522 63.7534 37.1076C63.8358 37.2629 63.9436 37.4119 64.0736 37.5577C64.5491 38.0808 65.2149 38.3661 65.8013 38.3376L65.776 38.5405L65.627 39.6723C65.5414 39.4725 65.4241 39.276 65.2656 39.0953C64.7425 38.4898 63.9785 38.2108 63.354 38.3091C63.0877 38.8005 63.2176 39.4947 63.7407 40.1002C64.2226 40.6487 64.8503 40.9594 65.4431 40.9594L65.1927 42.2781C65.1198 42.0753 65.012 41.8755 64.863 41.6853C64.3748 41.0576 63.6266 40.7469 62.9957 40.8135C62.7009 41.289 62.7897 41.9865 63.281 42.611C63.7217 43.1753 64.3684 43.524 64.9486 43.5526L64.9105 43.7523C64.9105 43.7523 64.901 43.822 64.8725 43.9266C64.8471 44.0313 64.8122 44.1676 64.7774 44.3071L64.6379 44.8587C64.5745 44.6526 64.4825 44.4497 64.343 44.2532C63.8961 43.6065 63.1447 43.2546 62.5234 43.2958C62.2064 43.7555 62.2507 44.4497 62.7072 45.0964C63.1162 45.6798 63.7407 46.0633 64.3209 46.1172L64.1275 46.8654C64.0419 47.138 63.9563 47.4075 63.9563 47.4075C63.9056 47.2014 63.8231 46.9922 63.6995 46.7893C63.2652 46.1141 62.536 45.7273 61.9115 45.7336C61.8323 45.8446 61.7752 45.9746 61.7403 46.1141C61.7023 46.2536 61.6801 46.3994 61.6864 46.5547C61.696 46.8654 61.8037 47.2078 62.0098 47.5406C62.3839 48.143 62.9862 48.5583 63.5632 48.6439L63.503 48.8373C63.503 48.8373 63.4174 49.1099 63.3318 49.3794C63.2906 49.5157 63.2462 49.652 63.205 49.7503C63.1669 49.8485 63.1416 49.9151 63.1416 49.9151C63.1035 49.7059 63.0369 49.4935 62.9101 49.2811C62.5044 48.5805 61.8069 48.1588 61.1792 48.1303C61.0017 48.3427 60.9319 48.6312 60.9224 48.9419C60.9161 49.2525 61.0017 49.5981 61.1887 49.9405C61.5279 50.5618 62.1049 51.0088 62.6787 51.1261L62.6058 51.3163C62.6058 51.3163 62.5043 51.5826 62.4029 51.8489C62.3522 51.9821 62.3046 52.1152 62.2602 52.2135C62.2159 52.3118 62.1873 52.3752 62.1873 52.3752C62.1651 52.1659 62.0986 51.944 61.9876 51.7253C61.623 51.0057 60.951 50.546 60.3264 50.4826C60.1394 50.6855 60.0443 50.9613 60.0284 51.2783C60.0031 51.5858 60.0696 51.9345 60.2377 52.2896C60.542 52.9268 61.0904 53.4087 61.6547 53.5577L61.5723 53.7415C61.5723 53.7415 61.455 54.0015 61.3377 54.2614C61.2268 54.5246 61.0904 54.775 61.0904 54.775C61.0809 54.5658 61.027 54.3407 60.9288 54.1156C60.6086 53.3738 59.9619 52.8792 59.3437 52.7778C59.1471 52.968 59.033 53.2406 59.0013 53.5513C58.9569 53.8588 59.0013 54.2075 59.1503 54.5721C59.4166 55.2283 59.9365 55.7387 60.4913 55.9226L60.3962 56.1033C60.3962 56.1033 60.263 56.3569 60.133 56.6074C60.0696 56.7342 59.9967 56.8578 59.9428 56.9497C59.8889 57.0417 59.8509 57.1019 59.8509 57.1019C59.8509 56.8895 59.8224 56.6708 59.7336 56.4362C59.4578 55.6785 58.8396 55.1427 58.2309 55.0033C58.0185 55.1776 57.9012 55.4503 57.8378 55.7482C57.7776 56.0526 57.803 56.4045 57.9266 56.7754C58.1517 57.4475 58.6431 57.9896 59.182 58.2083L59.0774 58.3827C59.0774 58.3827 58.9347 58.6299 58.7826 58.8677C58.624 59.1023 58.4624 59.3401 58.4624 59.3401C58.475 59.1277 58.456 58.9026 58.3926 58.6712C58.1707 57.9008 57.5811 57.3238 56.9819 57.1526C56.8741 57.2351 56.7822 57.3397 56.7124 57.4633C56.6363 57.5806 56.5761 57.7169 56.5349 57.8659C56.4588 58.1639 56.462 58.5222 56.5666 58.9026C56.7536 59.5873 57.207 60.1611 57.7332 60.4148L57.6191 60.5828C57.6191 60.5828 57.5811 60.643 57.5177 60.7286C57.4542 60.8142 57.3655 60.9283 57.2799 61.0393C57.1087 61.2644 56.9343 61.4926 56.9343 61.4926C56.9565 61.2802 56.9534 61.052 56.9026 60.8174C56.7473 60.047 56.1925 59.432 55.606 59.2196C55.14 59.5113 54.9149 60.158 55.0798 60.9347C55.2319 61.6384 55.6346 62.2281 56.145 62.5166L56.015 62.6719L55.2795 63.5406C55.3144 63.3281 55.3207 63.0999 55.2858 62.8621C55.1717 62.0728 54.6708 61.4356 54.0939 61.1819C53.6088 61.4387 53.3615 62.0886 53.4662 62.8653C53.5549 63.5596 53.9258 64.1841 54.414 64.5075L54.2746 64.6565C54.2746 64.6565 54.0812 64.8657 53.8846 65.0717C53.7864 65.1764 53.6912 65.281 53.6183 65.3571C53.5422 65.43 53.4915 65.4807 53.4915 65.4807C53.5486 65.2778 53.5644 65.0432 53.5422 64.8023C53.4725 64.0034 53.0128 63.3313 52.458 63.0397C52.2108 63.157 52.0174 63.3725 51.8906 63.6578C51.7543 63.9337 51.6877 64.2824 51.7131 64.6723C51.7606 65.3761 52.0903 66.0291 52.5563 66.381L52.4105 66.5237C52.4105 66.5237 52.3598 66.5744 52.2837 66.6473C52.2076 66.7234 52.1062 66.8217 51.9952 66.9136C51.7796 67.1007 51.5672 67.2877 51.5672 67.2877C51.6338 67.0848 51.6718 66.8629 51.6718 66.622C51.6655 65.8294 51.2375 65.113 50.7081 64.7928C50.2104 65.002 49.849 65.579 49.8585 66.3747C49.8648 67.0912 50.1501 67.7569 50.594 68.1405L50.4355 68.2673L49.5446 68.9742C49.6207 68.7714 49.6746 68.5494 49.6873 68.3085C49.7285 67.5128 49.3639 66.79 48.8504 66.4254C48.321 66.5808 47.9532 67.1704 47.8993 67.9503C47.8486 68.6509 48.0927 69.3356 48.508 69.7478L48.3431 69.8651C48.3431 69.8651 48.1117 70.0299 47.8803 70.1979C47.652 70.3691 47.4111 70.5213 47.4111 70.5213C47.5031 70.3311 47.5728 70.1155 47.5982 69.8714C47.6869 69.0725 47.3667 68.3244 46.8785 67.9313C46.6122 67.9947 46.384 68.1754 46.1969 68.4258C46.0099 68.6731 45.8799 69.0028 45.8292 69.3927C45.7404 70.0965 45.9401 70.8003 46.3301 71.2346L46.1589 71.3455L45.1825 71.932C45.2839 71.7418 45.3632 71.5294 45.4076 71.2916C45.5534 70.5086 45.2839 69.7446 44.8179 69.3166C44.2726 69.4022 43.8288 69.9411 43.6766 70.7083C43.5372 71.3994 43.6925 72.1127 44.0539 72.5724L43.8764 72.6707C43.8764 72.6707 43.6259 72.807 43.3755 72.9433C43.1219 73.0701 42.8682 73.2001 42.8682 73.2001C42.9824 73.0194 43.0775 72.8133 43.1377 72.5819C43.3279 71.8052 43.106 71.0158 42.6717 70.5657C42.1359 70.6449 41.6414 71.1109 41.448 71.8845C41.2673 72.5692 41.3751 73.2825 41.7048 73.7676L41.5209 73.8531C41.5209 73.8531 41.261 73.9736 41.0042 74.0909L40.4811 74.3128C40.6079 74.1385 40.7157 73.9419 40.7886 73.7137C41.0264 72.9465 40.8552 72.1508 40.4526 71.6721C39.9105 71.7101 39.3937 72.1539 39.1496 72.9084C38.9245 73.5742 38.9848 74.3001 39.2828 74.8042L39.0926 74.8771C39.0926 74.8771 38.8294 74.9849 38.56 75.0737C38.2937 75.1688 38.0242 75.2639 38.0242 75.2639C38.1605 75.099 38.281 74.9057 38.3698 74.6806C38.6646 73.9451 38.5409 73.1272 38.1732 72.6263C37.6311 72.6168 37.0985 73.0352 36.8005 73.7549C36.5374 74.4048 36.5342 75.1276 36.791 75.657L36.5976 75.7141L36.0904 75.8535C35.9541 75.8884 35.8717 76.0247 35.9034 76.1642C35.9351 76.3005 36.0777 76.383 36.2172 76.3481L36.7371 76.2054L36.9337 76.1452C37.0002 76.7253 37.3965 77.3435 38.0527 77.6986C38.7787 78.0949 39.5934 78.0441 40.0658 77.6479C40.0309 77.0075 39.5522 76.3576 38.8326 75.974C38.6139 75.8599 38.3983 75.787 38.1859 75.7457C38.1859 75.7457 38.4585 75.6506 38.728 75.5524C39.0006 75.4604 39.2701 75.3527 39.2701 75.3527L39.4635 75.2797C39.5776 75.8535 40.0183 76.4337 40.6967 76.7475C41.4385 77.0804 42.2437 76.9885 42.6844 76.5573C42.6083 75.9265 42.0789 75.2956 41.3434 74.9754C41.1183 74.8771 40.8932 74.8137 40.6808 74.7852C40.6808 74.7852 40.9471 74.6711 41.2102 74.5601C41.4734 74.4396 41.7333 74.3192 41.7333 74.3192L41.9204 74.2336C42.0725 74.7947 42.5544 75.3495 43.2487 75.6158C44.0095 75.8948 44.8084 75.7648 45.2142 75.2988C45.0937 74.6711 44.5326 74.0814 43.7749 73.8056C43.5435 73.72 43.3184 73.6756 43.0997 73.6598C43.0997 73.6598 43.3565 73.5298 43.6132 73.3998C43.8669 73.2635 44.1205 73.124 44.1205 73.124L44.3012 73.0257C44.4914 73.5805 45.0018 74.0941 45.7151 74.3192C46.5013 74.5696 47.2685 74.3477 47.6584 73.8817C47.5031 73.2698 46.8975 72.7055 46.1208 72.4741C45.8863 72.4044 45.658 72.3758 45.4424 72.3758L46.4315 71.783L46.6059 71.6721C46.831 72.2142 47.3731 72.6929 48.0927 72.8672C48.4921 72.9623 48.8821 72.9497 49.2181 72.8545C49.5542 72.7531 49.8268 72.5566 50.0043 72.3061C49.8078 71.7006 49.1706 71.1839 48.3875 71.0095C48.1529 70.9588 47.9215 70.9429 47.7028 70.9524C47.7028 70.9524 47.9469 70.8003 48.1783 70.6259C48.4129 70.4579 48.6475 70.2899 48.6475 70.2899L48.8155 70.1694C49.0755 70.6925 49.6493 71.1426 50.3847 71.2758C51.1931 71.4185 51.9286 71.1046 52.2552 70.591C52.0237 70.0014 51.3485 69.5227 50.5496 69.3927C50.3087 69.3547 50.0772 69.3547 49.8648 69.3832L50.7683 68.6667L50.93 68.5399C51.2217 69.0472 51.824 69.4593 52.5563 69.529C53.3647 69.6083 54.1065 69.2817 54.3823 68.727C54.1034 68.1468 53.4154 67.7284 52.607 67.6491C52.3598 67.6237 52.1283 67.6364 51.9159 67.6776C51.9159 67.6776 52.1315 67.4874 52.3503 67.2972C52.4612 67.2053 52.5627 67.1038 52.6419 67.0277C52.7212 66.9517 52.7719 66.9041 52.7719 66.9041L52.9209 66.7615C53.2474 67.2497 53.8719 67.6142 54.6138 67.6459C55.0259 67.665 55.4095 67.5762 55.7233 67.4177C56.0277 67.2465 56.2591 67.0024 56.3859 66.7234C56.0752 66.1686 55.3461 65.785 54.544 65.7692C54.2999 65.7628 54.078 65.8009 53.8624 65.8516C53.8624 65.8516 53.9132 65.8009 53.9924 65.7248C54.0653 65.6456 54.1636 65.5409 54.2619 65.4363C54.4584 65.2271 54.655 65.0147 54.655 65.0147L54.7945 64.8657C55.1495 65.3285 55.8026 65.6551 56.5507 65.6424C57.3718 65.6234 58.028 65.1669 58.25 64.5994C57.9044 64.07 57.1531 63.7308 56.3447 63.7625C56.1006 63.772 55.8755 63.8195 55.6694 63.8893L56.4144 63.008L56.5476 62.8495C56.9312 63.2869 57.6128 63.5786 58.3419 63.5025C59.1503 63.4233 59.797 62.9414 59.9777 62.3581C59.5941 61.8445 58.8333 61.5687 58.0185 61.6448C57.7744 61.6701 57.5494 61.7272 57.3496 61.8096C57.3496 61.8096 57.524 61.5814 57.6984 61.35C57.7839 61.2358 57.8727 61.1217 57.9393 61.0329C58.0027 60.9473 58.0439 60.8839 58.0439 60.8839L58.158 60.7127C58.5733 61.128 59.2581 61.3626 59.9872 61.2453C60.393 61.1819 60.7481 61.0203 61.0207 60.8015C61.157 60.6906 61.2743 60.5669 61.3663 60.4338C61.4518 60.2975 61.5121 60.1485 61.5438 59.9995C61.1253 59.5144 60.3486 59.283 59.5561 59.4193C59.312 59.4574 59.0901 59.5303 58.8935 59.6254L59.2169 59.1499C59.3722 58.9057 59.5149 58.6585 59.5149 58.6585L59.6195 58.4809C60.0601 58.8677 60.7576 59.0611 61.4836 58.8994C61.883 58.8106 62.2317 58.6299 62.4917 58.3953C62.758 58.1639 62.9038 57.8596 62.9545 57.5584C62.5107 57.1019 61.7118 56.9149 60.9383 57.1051C60.7069 57.1653 60.4849 57.2477 60.2947 57.3524C60.2947 57.3524 60.3328 57.2921 60.3867 57.197C60.4437 57.1051 60.5166 56.9814 60.58 56.8515C60.7132 56.5979 60.8463 56.3411 60.8463 56.3411L60.9414 56.1604C61.4043 56.5186 62.1144 56.6676 62.8309 56.4647C63.2272 56.3538 63.5632 56.1509 63.8105 55.9036C64.0482 55.65 64.1845 55.3456 64.2131 55.0413C63.7439 54.6133 62.9355 54.4738 62.1715 54.7116C61.9432 54.7845 61.7403 54.886 61.5501 55.0001C61.5501 55.0001 61.6864 54.7465 61.8006 54.4802C61.9179 54.2171 62.0383 53.9539 62.0383 53.9539L62.1239 53.7669C62.609 54.0966 63.3254 54.2044 64.0292 53.9603C64.4191 53.8239 64.7425 53.6052 64.9739 53.3421C65.1927 53.0758 65.3131 52.7619 65.3258 52.4576C64.8313 52.055 64.0165 51.9662 63.2684 52.2452C63.0433 52.3308 62.8467 52.4449 62.666 52.5717C62.666 52.5717 62.6946 52.5052 62.7389 52.4069C62.7833 52.3086 62.8309 52.1723 62.8816 52.0391C62.983 51.7697 63.0877 51.5002 63.0877 51.5002L63.1606 51.3068C63.6615 51.608 64.3874 51.6714 65.0722 51.3892C65.4526 51.2339 65.7601 50.993 65.9789 50.7203C66.1976 50.4445 66.2864 50.1243 66.2832 49.8232C65.7665 49.4491 64.9486 49.4047 64.2194 49.7281C64.0038 49.8263 63.801 49.95 63.6298 50.0863C63.6298 50.0863 63.6551 50.0197 63.6932 49.9183C63.7344 49.82 63.7819 49.6805 63.8231 49.5442C63.9087 49.2684 63.9975 48.9958 63.9975 48.9958L64.0609 48.7992C64.5808 49.0718 65.3036 49.0972 65.9725 48.7738C66.3403 48.5963 66.6351 48.3427 66.8348 48.0574C66.9331 47.9147 67.0123 47.7657 67.0567 47.6104C67.0979 47.4551 67.1138 47.2997 67.0979 47.1475C66.559 46.802 65.7474 46.802 65.031 47.1602C64.8059 47.268 64.6157 47.4012 64.454 47.547C64.454 47.547 64.5396 47.2712 64.6284 46.9985L64.771 46.4406L64.8218 46.2409C65.3543 46.485 66.0803 46.4691 66.7239 46.1141C67.4372 45.721 67.8398 45.0362 67.7764 44.437C67.2216 44.12 66.4132 44.1612 65.6936 44.5512C65.478 44.6716 65.2941 44.8143 65.1419 44.9665L65.2814 44.4085C65.3163 44.269 65.3512 44.1295 65.3765 44.0249C65.4019 43.9203 65.4146 43.8506 65.4146 43.8506L65.4526 43.6477C65.9979 43.8664 66.7175 43.8125 67.342 43.4258C68.03 42.9978 68.3882 42.294 68.2963 41.7012C67.7352 41.4127 66.9141 41.4888 66.223 41.9167C66.0137 42.0467 65.8426 42.1989 65.6967 42.3606L65.9123 41.2288L65.9503 41.0259C66.4956 41.2161 67.2438 41.1337 67.8334 40.7152C68.496 40.2556 68.8098 39.5391 68.6862 38.9495C68.1092 38.6895 67.2945 38.8005 66.6319 39.2601C66.4322 39.3996 66.2674 39.5581 66.1342 39.7293L66.2832 38.5881L66.3086 38.3852C66.8697 38.55 67.5893 38.4327 68.1885 37.9921C68.3533 37.8716 68.4992 37.7353 68.6196 37.5894C68.7306 37.4436 68.8193 37.2883 68.8859 37.1298C69.0127 36.8128 69.0413 36.4862 68.962 36.1946C68.3724 35.96 67.5671 36.1058 66.9299 36.5908C66.7365 36.7398 66.5844 36.9047 66.4607 37.079L66.5463 35.9314L66.5622 35.7254C67.1296 35.868 67.8398 35.719 68.4167 35.253C68.7338 34.9962 68.962 34.6856 69.0888 34.3654C69.1522 34.2069 69.1903 34.042 69.2061 33.8867C69.2125 33.7282 69.1903 33.576 69.1427 33.4333C68.5372 33.2209 67.751 33.4016 67.1296 33.912V33.9311Z" fill="#183041"/>
<path d="M61.5537 11.3271L61.2525 8.65143L58.561 8.51828C54.1101 8.29954 45.6298 7.30093 38.852 3.07191C38.3067 2.7327 37.1496 1.8926 36.5029 1.41073L34.6103 0L32.7177 1.41073C31.903 2.01624 30.86 2.76757 30.3654 3.07508C23.5876 7.30093 15.1073 8.29954 10.6564 8.51828L7.96491 8.65143L7.66375 11.3271C5.34951 31.9301 12.1876 56.0774 18.3314 62.3353C25.2297 69.3636 33.0125 71.3608 33.878 71.5669L34.6071 71.7412L35.3363 71.5669C36.2017 71.3608 43.9814 69.3636 50.8828 62.3353C57.0267 56.0774 63.8647 31.9301 61.5505 11.3271H61.5537ZM34.9749 70.0262L34.6103 70.1118L34.2457 70.0262C33.4278 69.8328 26.054 67.937 19.4663 61.2257C13.5635 55.2151 6.99801 31.4894 9.2425 11.5046L9.3915 10.1668L10.7357 10.1002C15.3388 9.87512 24.1202 8.8353 31.2023 4.41606C31.773 4.061 32.8857 3.25578 33.6624 2.6788L34.6103 1.97502L35.555 2.68197C36.1288 3.10995 37.381 4.02613 38.0119 4.41923C45.0941 8.8353 53.8755 9.87512 58.4786 10.1034L59.8228 10.1699L59.9718 11.5078C62.2162 31.4926 55.6508 55.2182 49.7479 61.2289C43.1603 67.9402 35.7864 69.8359 34.9685 70.0293L34.9749 70.0262Z" fill="#183041"/>
<path d="M19.7223 44.8616C19.7223 44.8616 19.7097 44.8521 19.7002 44.849C19.7002 44.849 19.6177 48.7102 22.9369 50.5141C26.2593 52.3179 26.2593 55.7512 26.2593 55.7512C26.2593 55.7512 19.1517 51.9755 15.7152 44.5066C12.2788 37.0408 12.1234 37.5544 12.1234 37.5544C11.9142 38.2455 12.2914 39.615 12.377 40.3061C13.1854 46.7669 15.3507 52.6856 19.5163 57.479C23.5107 62.0726 28.3865 64.9004 32.8691 66.9832C32.8469 66.9737 33.4904 64.2568 33.5126 64.0761C34.0547 60.0119 33.1005 55.0443 30.352 52.096C27.483 49.0177 23.1905 47.0142 19.7192 44.8648L19.7223 44.8616Z" fill="#183041"/>
<path d="M53.4842 44.5036C50.0477 51.9693 42.9402 55.7482 42.9402 55.7482C42.9402 55.7482 42.9402 52.3149 46.2625 50.5111C49.5849 48.7072 49.4993 44.846 49.4993 44.846C49.4929 44.8491 49.4866 44.8555 49.4771 44.8586C46.0057 47.0112 41.7133 49.0147 38.8443 52.0898C36.0957 55.0381 35.1384 60.0058 35.6836 64.0699C35.709 64.2475 36.3525 66.9643 36.3272 66.977C40.8098 64.8942 45.6855 62.0695 49.68 57.4728C53.8488 52.6795 56.0108 46.7607 56.8192 40.2999C56.9048 39.6088 57.2821 38.2393 57.0728 37.5482C57.0728 37.5482 56.9175 37.0346 53.481 44.5004L53.4842 44.5036Z" fill="#183041"/>
<path d="M37.2175 50.4041C38.1091 49.6002 39.1661 48.9024 40.2903 48.2637C42.0757 47.2517 42.9408 45.2847 42.3777 43.4218C42.3695 43.3933 42.3593 43.3647 42.3512 43.3361C41.3452 44.3359 39.8333 45.4582 37.5705 46.6212C37.5664 46.6232 37.5623 46.6253 37.5562 46.6273C37.3848 46.7334 37.2093 46.8375 37.0216 46.9415C35.9177 47.5516 35.2342 48.3494 34.8322 49.2166C34.4303 48.3515 33.7467 47.5516 32.6429 46.9415C32.4551 46.8375 32.2797 46.7334 32.1083 46.6273C32.1042 46.6253 32.1001 46.6232 32.094 46.6212C29.8291 45.4582 28.3192 44.3359 27.3133 43.3361C27.3051 43.3647 27.2949 43.3933 27.2868 43.4218C26.7236 45.2847 27.5908 47.2517 29.3741 48.2637C30.4984 48.9024 31.5553 49.6002 32.447 50.4041C33.4243 51.2856 34.1283 52.4241 34.5772 53.6606C34.6466 53.9585 34.7241 54.2319 34.7996 54.4747C34.8281 54.4747 34.7996 54.4747 34.8261 54.4747C34.8261 54.4707 34.8281 54.4666 34.8302 54.4625C34.8302 54.4666 34.8322 54.4707 34.8343 54.4747C34.8628 54.4747 34.8343 54.4747 34.8608 54.4747C34.9363 54.2319 35.0138 53.9565 35.0832 53.6606C35.5341 52.4241 36.236 51.2835 37.2134 50.4041H37.2175Z" fill="#92220F"/>
<path d="M37.8716 43.6707C38.5487 42.0361 37.7725 40.1622 36.1379 39.4852C34.5034 38.8081 32.6295 39.5843 31.9524 41.2189C31.2754 42.8534 32.0516 44.7273 33.6861 45.4044C35.3207 46.0814 37.1946 45.3052 37.8716 43.6707Z" fill="#92220F"/>
<path d="M23.3196 36.4617L21.8118 27.9175L20.1365 14.7128H16.4507V12.0932H22.1316L23.5176 20.0739L25.4366 33.8116H29.1071V36.4617H23.3196ZM16.4507 36.4617V15.977H18.9637L19.3902 36.4617H16.4507ZM26.5637 32.5475L26.32 21.1857L26.1372 12.0932H29.1071V32.5475H26.5637Z" fill="#183041"/>
<path d="M32.6329 36.4617V12.0932H35.5876V36.4617H32.6329ZM37.3086 25.4806V22.8458H41.3294V25.4806H37.3086ZM37.3086 14.7281V12.0932H41.634V14.7281H37.3086Z" fill="#183041"/>
<path d="M48.0655 36.6597C46.5323 36.5581 45.4256 36.1368 44.7453 35.3956C44.065 34.6442 43.7096 33.4816 43.6792 31.9078C43.6589 30.466 43.6436 29.1207 43.6335 27.8718C43.6233 26.6229 43.6182 25.4096 43.6182 24.2318C43.6182 23.0438 43.6233 21.8355 43.6335 20.607C43.6436 19.3682 43.6589 18.0483 43.6792 16.6471C43.7096 15.0733 44.065 13.9158 44.7453 13.1746C45.4256 12.4232 46.5323 11.9968 48.0655 11.8952V14.4235C47.568 14.525 47.2126 14.7382 46.9994 15.0631C46.7861 15.388 46.6744 15.8754 46.6643 16.5252C46.6237 17.9467 46.5932 19.2819 46.5729 20.5308C46.5526 21.7797 46.5425 23.0032 46.5425 24.2013C46.5425 25.3994 46.5526 26.6331 46.5729 27.9023C46.5932 29.1715 46.6237 30.5473 46.6643 32.0297C46.6744 32.6896 46.7861 33.1821 46.9994 33.507C47.2126 33.8218 47.568 34.0299 48.0655 34.1315V36.6597ZM49.817 36.6597V34.1162C50.3145 34.0248 50.6597 33.8167 50.8526 33.4918C51.0557 33.1669 51.1623 32.6795 51.1725 32.0297C51.2232 30.5777 51.2588 29.2222 51.2791 27.9632C51.2994 26.7041 51.3095 25.4807 51.3095 24.2927C51.3095 23.0946 51.2994 21.866 51.2791 20.607C51.2588 19.3378 51.2232 17.9772 51.1725 16.5252C51.1623 15.8754 51.0557 15.388 50.8526 15.0631C50.6597 14.7382 50.3145 14.5301 49.817 14.4387V11.8952C51.2892 12.0069 52.3604 12.4384 53.0306 13.1898C53.7007 13.9412 54.0561 15.0936 54.0967 16.6471C54.1373 18.0483 54.1627 19.3682 54.1728 20.607C54.1931 21.8355 54.2033 23.0438 54.2033 24.2318C54.2033 25.4197 54.1931 26.6382 54.1728 27.887C54.1627 29.1258 54.1373 30.466 54.0967 31.9078C54.0561 33.4715 53.7007 34.6239 53.0306 35.3651C52.3604 36.1063 51.2892 36.5378 49.817 36.6597Z" fill="#183041"/>
<path d="M166.644 4.08395V3.20573H170.782V4.08395H169.239V8.24381H168.186V4.08395H166.644Z" fill="black"/>
<path d="M171.463 3.20573H172.777L174.164 6.59069H174.223L175.611 3.20573H176.924V8.24381H175.891V4.96463H175.849L174.545 8.21921H173.842L172.538 4.95233H172.496V8.24381H171.463V3.20573Z" fill="black"/>
</svg>
