<svg width="74" height="42" viewBox="0 0 74 42" fill="none" xmlns="http://www.w3.org/2000/svg">
<path d="M0.762905 41.6053C4.01513 34.6018 9.64834 14.7173 13.1621 11.7938C16.6759 8.87026 27.5532 0.0499679 30.2906 9.25469C31.844 14.478 26.6408 27.0119 21.3814 37.4356C19.9691 40.2346 13.0694 40.3987 10.8063 38.2291V38.2291C4.60484 32.2837 7.14248 22.125 3.13123 26.3236C1.43651 28.0974 3.78135 24.6694 7.36531 20.1251C13.5752 12.2512 24.5965 8.78668 31.7908 15.7726C35.118 19.0034 37.0382 22.89 35.1123 26.7313C29.8142 37.2988 30.6748 35.4551 27.2581 39.7371C24.0569 43.7491 23.2641 36.9883 23.5443 29.6757C23.722 25.0391 28.5419 22.3727 32.802 24.2117V24.2117C37.0946 26.0648 37.9755 33.0713 41.6166 36.0044C42.1956 36.4708 42.8951 36.9034 43.7149 37.2976C48.2977 39.5014 55.3248 14.1245 58.2656 1.1606C53.5149 13.878 46.1369 38.5861 54.6301 35.6796C63.1233 32.773 59.5542 -3.29625 68.3787 2.2357C75.5134 6.70832 54.9818 -0.651924 63.0895 25.3303C70.4565 48.9391 71.6449 32.8133 72.9755 19.0672C73.2347 16.3893 73.1878 13.6891 72.7933 11.0277L72.3674 8.15476" stroke="#2C6AB1" stroke-width="1.42266"/>
</svg>
